<?xml version="1.0" standalone="no"?>
<!DOCTYPE svg PUBLIC "-//W3C//DTD SVG 1.1//EN" "http://www.w3.org/Graphics/SVG/1.1/DTD/svg11.dtd" >
<!--
2013-9-30: Created.
-->
<svg>
<metadata>
Created by iconfont
</metadata>
<defs>

<font id="iconfont" horiz-adv-x="1024" >
  <font-face
    font-family="iconfont"
    font-weight="500"
    font-stretch="normal"
    units-per-em="1024"
    ascent="896"
    descent="-128"
  />
    <missing-glyph />
    
    <glyph glyph-name="x" unicode="x" horiz-adv-x="1001"
d="M281 543q-27 -1 -53 -1h-83q-18 0 -36.5 -6t-32.5 -18.5t-23 -32t-9 -45.5v-76h912v41q0 16 -0.5 30t-0.5 18q0 13 -5 29t-17 29.5t-31.5 22.5t-49.5 9h-133v-97h-438v97zM955 310v-52q0 -23 0.5 -52t0.5 -58t-10.5 -47.5t-26 -30t-33 -16t-31.5 -4.5q-14 -1 -29.5 -0.5
t-29.5 0.5h-32l-45 128h-439l-44 -128h-29h-34q-20 0 -45 1q-25 0 -41 9.5t-25.5 23t-13.5 29.5t-4 30v167h911zM163 247q-12 0 -21 -8.5t-9 -21.5t9 -21.5t21 -8.5q13 0 22 8.5t9 21.5t-9 21.5t-22 8.5zM316 123q-8 -26 -14 -48q-5 -19 -10.5 -37t-7.5 -25t-3 -15t1 -14.5
t9.5 -10.5t21.5 -4h37h67h81h80h64h36q23 0 34 12t2 38q-5 13 -9.5 30.5t-9.5 34.5q-5 19 -11 39h-368zM336 498v228q0 11 2.5 23t10 21.5t20.5 15.5t34 6h188q31 0 51.5 -14.5t20.5 -52.5v-227h-327z" />
    

    
    <glyph glyph-name="star" unicode="&#58880;" d="M866.928-211.152 508 29.472 187.168-211.152l108.976 397.024L-0.832 446.544l379.648 0 129.184 365.92 139.552-366.032 375.616 0L739.392 187.888 866.928-211.152z"  horiz-adv-x="1024" />

    
    <glyph glyph-name="image" unicode="&#58902;" d="M891.968 71.872h-759.936c-36.608 0-66.368 29.76-66.368 66.176l-0 491.776c0 36.544 29.76 66.304 66.368 66.304h759.872c36.608 0 66.368-29.76 66.368-66.304v-491.776c0.064-36.416-29.696-66.176-66.304-66.176zM132.032 651.968c-12.224 0-22.208-9.984-22.208-22.144v-491.776c0-12.16 9.92-22.016 22.208-22.016h759.872c12.224 0 22.144 9.792 22.144 22.016v491.776c0 12.096-9.856 22.144-22.144 22.144l-759.872-0zM853.632 194.176h-679.552v22.144c0 32.448 20.608 278.656 97.856 299.52 3.84 1.088 7.744 1.536 11.776 1.536 34.496 0 57.6-37.568 82.112-77.376 17.728-28.736 41.856-68.032 60.224-68.032 11.648 3.264 41.152 33.6 62.528 55.744 57.344 59.072 128.768 132.544 195.136 132.544 108.16-4.608 157.184-284.48 165.888-340.48l4.032-25.6zM219.008 238.4h582.656c-24.448 136.768-73.344 275.84-115.904 277.632v0c-49.856 0-116.672-68.8-165.504-119.104-40.896-42.176-63.168-64.384-83.712-68.16-3.648-0.704-7.040-1.024-10.496-1.024v0c-43.008 0-70.848 45.248-97.856 89.152-11.264 18.24-34.624 56.32-44.48 56.32-25.536-6.848-59.52-145.216-64.704-234.816z"  horiz-adv-x="1024" />

    
    <glyph glyph-name="star-o" unicode="&#58915;" d="M206.467-76.272l84.025 353.072-277.115 267.993 360.302 1.437 134.068 325.371 141.759-326.618 362.637 1.063-278.869-266.501 88.722-351.688-309.055 188.555-306.475-192.684zM104.151 508.291l227.066-219.593-68.003-285.748 249.436 156.824 251.536-153.464-71.909 285.044 227.652 217.557-294.579-0.863-116.721 268.93-110.227-267.513-294.25-1.174z"  horiz-adv-x="1024" />

    
    <glyph glyph-name="plus" unicode="&#59053;" d="M534.945-98.998l-0.007 460.223 458.26-0.004c12.569 0.014 22.78 10.223 22.792 22.791-0.031 12.585-10.223 22.777-22.792 22.792l-458.261-0.010-0.006 460.206c0.014 12.631-10.225 22.871-22.855 22.855-12.599 0.015-22.839-10.224-22.839-22.838l-0.002-460.224-459.277-0.009c-12.583 0.001-22.778-10.193-22.776-22.774-0.001-12.588 10.206-22.795 22.779-22.779l459.276-0.004-0.003-460.225c-0.002-12.617 10.238-22.857 22.854-22.857 12.618-0 22.843 10.225 22.858 22.857z"  horiz-adv-x="1024" />

    
    <glyph glyph-name="upload" unicode="&#58930;" d="M961.081 168.031q0-22.404-7.617-42.119t-21.508-35.398-32.261-26.436-39.879-14.339l0.896-0.896h-613.856q-4.481-0.896-14.339-0.896-34.95 0-65.419 13.443t-53.32 36.294-35.845 53.32-12.994 65.419 12.994 65.419 35.845 53.32 53.32 36.294 65.419 13.443h0.896q-0.896 7.169-0.896 13.443v14.338q0 63.627 24.196 120.082t66.314 98.127 98.127 65.866 119.635 24.196 120.082-24.196 98.576-65.866 66.314-98.127 24.196-120.082q0-33.158-7.169-64.97t-19.715-60.489q4.481 0.896 9.41 1.344t9.41 0.449q24.196 0 46.151-9.41t38.086-25.989 25.54-38.534 9.41-47.048zM647.431 274.672q17.923 0 23.3 4.033t-7.169 19.267q-12.546 16.13-27.781 42.119t-31.813 52.873-33.605 50.184-33.158 34.053q-16.13 11.65-23.748 12.546t-21.955-10.754q-16.13-13.443-31.365-34.053t-30.917-43.911-31.365-45.704-31.813-39.43q-16.13-16.13-11.65-28.676t22.404-12.546h14.338q8.066 0 17.474-0.449t18.371-0.449h15.235q12.546-0.896 16.13-8.513t3.585-21.059q0-15.235-0.449-26.884t-0.449-22.404-0.449-22.404-0.449-26.884q0-6.274 1.344-13.443t4.929-13.443 10.754-10.305 18.819-4.033h20.611q8.066 0 24.196-0.896 21.508 0 24.644 10.754t3.136 34.053q0 20.611 0.449 37.189t0.449 45.255q0 20.611 4.033 31.813t17.474 11.202q9.858 0 28.228 0.449t28.228 0.449z"  horiz-adv-x="1024" />

    
    <glyph glyph-name="shouru" unicode="&#58896;" d="M348.16-101.408c-21.504 8.192-41.984 16.384-63.488 25.6-29.696 11.264-40.96 39.936-29.696 70.656 4.096 11.264 7.168 22.528 12.288 33.792 3.072 7.168 2.048 12.288-4.096 17.408-28.672 24.576-53.248 53.248-70.656 87.04-16.384 30.72-25.6 63.488-24.576 98.304 1.024 27.648 3.072 56.32 4.096 82.944-13.312 8.192-27.648 17.408-39.936 27.648-40.96 34.816-39.936 107.52 2.048 139.264 5.12 4.096 10.24 7.168 16.384 9.216 8.192 3.072 16.384-2.048 20.48-9.216 3.072-8.192 2.048-16.384-5.12-22.528-1.024-1.024-3.072-3.072-4.096-3.072-27.648-12.288-33.792-62.464-4.096-87.04 8.192-7.168 17.408-12.288 26.624-18.432 3.072 6.144 5.12 10.24 6.144 15.36 24.576 59.392 67.584 98.304 119.808 128 72.704 40.96 150.528 52.224 231.424 44.032 16.384-2.048 31.744-5.12 48.128-7.168 2.048 0 6.144 1.024 7.168 4.096 27.648 51.2 70.656 81.92 123.904 97.28 8.192 2.048 16.384 2.048 21.504-5.12 5.12-6.144 4.096-14.336 2.048-22.528-7.168-24.576-15.36-50.176-21.504-75.776-3.072-10.24-3.072-20.48-4.096-30.72-1.024-6.144 1.024-9.216 6.144-11.264 37.888-17.408 67.584-45.056 89.088-82.944 10.24-18.432 18.432-38.912 22.528-60.416 3.072-13.312 3.072-13.312 15.36-13.312l20.48 0c25.6-1.024 43.008-16.384 48.128-44.032 0-1.024 1.024-3.072 1.024-4.096l0-93.184c0-2.048-1.024-3.072-1.024-5.12-4.096-25.6-19.456-40.96-44.032-43.008-6.144-1.024-12.288-1.024-18.432 0-14.336 2.048-22.528-4.096-29.696-18.432-19.456-41.984-49.152-74.752-88.064-99.328-3.072-2.048-5.12-4.096-8.192-6.144 3.072-8.192 5.12-15.36 8.192-23.552 12.288-33.792 1.024-60.416-31.744-72.704-19.456-8.192-39.936-16.384-59.392-24.576l-19.456 0c-23.552 7.168-34.816 25.6-40.96 49.152-1.024 4.096-3.072 8.192-4.096 12.288-1.024 7.168-5.12 10.24-13.312 9.216-49.152-5.12-99.328-8.192-148.48 4.096-2.048 1.024-6.144-2.048-7.168-5.12-3.072-7.168-6.144-15.36-9.216-23.552-6.144-22.528-18.432-38.912-40.96-46.08L348.16-104.48 348.16-101.408zM700.416 585.696c-7.168-4.096-11.264-6.144-16.384-9.216-27.648-17.408-47.104-41.984-61.44-72.704-6.144-12.288-12.288-15.36-25.6-13.312-22.528 4.096-44.032 8.192-66.56 10.24-81.92 7.168-158.72-8.192-228.352-56.32-22.528-15.36-43.008-32.768-58.368-56.32-25.6-38.912-36.864-82.944-39.936-130.048-2.048-41.984 5.12-81.92 26.624-117.76 16.384-26.624 36.864-48.128 59.392-67.584 17.408-15.36 21.504-30.72 13.312-53.248-4.096-12.288-9.216-25.6-13.312-37.888-5.12-13.312-2.048-18.432 9.216-23.552 16.384-6.144 32.768-13.312 48.128-19.456 12.288-5.12 18.432-2.048 22.528 10.24 5.12 14.336 10.24 27.648 16.384 41.984 6.144 15.36 18.432 21.504 34.816 19.456 16.384-2.048 32.768-7.168 49.152-7.168 32.768 0 65.536 1.024 98.304 3.072 26.624 2.048 38.912-4.096 48.128-31.744 3.072-9.216 6.144-19.456 10.24-29.696 3.072-8.192 9.216-11.264 17.408-8.192 19.456 7.168 37.888 14.336 56.32 22.528 7.168 3.072 10.24 9.216 7.168 17.408-2.048 7.168-4.096 14.336-7.168 20.48-9.216 27.648-4.096 43.008 19.456 58.368 9.216 6.144 19.456 12.288 27.648 19.456 23.552 20.48 40.96 46.08 54.272 74.752 9.216 19.456 23.552 28.672 45.056 28.672 8.192 0 16.384 0 24.576 0 10.24 0 14.336 4.096 14.336 15.36 0 27.648 0 56.32 0 83.968 0 12.288-4.096 15.36-15.36 15.36-10.24 0-20.48 0-30.72 1.024-19.456 1.024-31.744 12.288-35.84 33.792-12.288 63.488-47.104 106.496-104.448 130.048-12.288 5.12-16.384 10.24-16.384 25.6 0 25.6 3.072 51.2 10.24 75.776C695.296 568.288 697.344 575.456 700.416 585.696L700.416 585.696zM405.504 717.792c16.384-5.12 34.816-8.192 50.176-16.384 43.008-22.528 66.56-60.416 72.704-110.592 1.024-4.096 0-8.192 0-13.312-11.264 0-22.528-1.024-33.792-2.048-2.048 41.984-19.456 74.752-56.32 94.208-24.576 13.312-49.152 13.312-74.752 4.096-49.152-18.432-81.92-78.848-55.296-142.336-10.24-5.12-20.48-9.216-31.744-14.336-9.216 19.456-13.312 38.912-13.312 60.416 0 71.68 50.176 130.048 116.736 139.264 2.048 0 4.096 1.024 7.168 2.048C393.216 717.792 399.36 717.792 405.504 717.792L405.504 717.792zM681.984 295.904c0 19.456 15.36 35.84 33.792 35.84 18.432 0 33.792-16.384 33.792-35.84 0-19.456-15.36-35.84-33.792-35.84C697.344 259.04 681.984 276.448 681.984 295.904L681.984 295.904zM681.984 295.904"  horiz-adv-x="1024" />

    
    <glyph glyph-name="check" unicode="&#58891;" d="M874.322026 641.095449l-389.17358-506.198877c-3.530406-4.594645-8.861832-7.480368-14.643512-7.930623-0.532119-0.040932-1.054005-0.061398-1.586125-0.061398-5.229095 0-10.284227 2.00568-14.101159 5.64865l-210.013131 199.8824-32.397874-42.149982c-6.897084-8.953929-19.739577-10.642384-28.703739-3.745301-8.964162 6.886851-10.642384 19.739577-3.745301 28.693506l46.263673 60.180638c3.540639 4.594645 8.861832 7.480368 14.643512 7.930623s11.491729-1.586125 15.687284-5.587252l210.013131-199.8824 375.297548 488.168222c6.897084 8.964162 19.739577 10.642384 28.703739 3.755534C879.530654 662.902104 881.208876 650.059612 874.322026 641.095449z"  horiz-adv-x="1024" />

    
    <glyph glyph-name="qrcode" unicode="&#58892;" d="M341.855 834.511h-245.082c-11.297 0-20.466-9.169-20.466-20.466v-245.092c0-11.297 9.169-20.466 20.466-20.466h245.082c11.308 0 20.466 9.169 20.466 20.466l0 245.092c0 11.297-9.159 20.466-20.466 20.466zM321.389 589.418h-204.15v204.16h204.15v-204.16zM927.227 834.511h-245.082c-11.308 0-20.466-9.169-20.466-20.466v-245.092c0-11.297 9.159-20.466 20.466-20.466h245.082c11.308 0 20.466 9.169 20.466 20.466v245.092c0 11.297-9.159 20.466-20.466 20.466zM906.761 589.418h-204.15v204.16h204.15v-204.16zM927.227 245.741h-245.082c-11.308 0-20.466-9.159-20.466-20.466v-265.476c0-11.308 9.159-20.466 20.466-20.466h245.082c11.308 0 20.466 9.159 20.466 20.466v265.476c0 11.308-9.159 20.466-20.466 20.466zM906.761-19.735h-204.15v224.544h204.15v-224.544zM947.693 456.204c0-11.308-9.159-20.466-20.466-20.466h-830.454c-11.297 0-20.466 9.159-20.466 20.466 0 11.297 9.169 20.466 20.466 20.466h830.454c11.308 0 20.466-9.169 20.466-20.466zM481.772 810.76v-241.807c0-11.297-9.159-20.466-20.466-20.466-11.297 0-20.466 9.169-20.466 20.466v241.807c0 11.308 9.169 20.466 20.466 20.466 11.308 0 20.466-9.159 20.466-20.466zM589.106 810.76v-241.807c0-11.297-9.159-20.466-20.466-20.466s-20.466 9.169-20.466 20.466v241.807c0 11.308 9.159 20.466 20.466 20.466s20.466-9.159 20.466-20.466zM426.421 225.275v-267.881c0-11.308-9.159-20.466-20.466-20.466s-20.466 9.159-20.466 20.466v267.881c0 11.308 9.159 20.466 20.466 20.466 11.308 0 20.466-9.159 20.466-20.466zM556.688 351.797v-394.403c0-11.308-9.159-20.466-20.466-20.466-11.297 0-20.466 9.159-20.466 20.466v394.403c0 11.297 9.169 20.466 20.466 20.466 11.308 0 20.466-9.169 20.466-20.466zM165.877 351.797v-394.403c0-11.308-9.159-20.466-20.466-20.466-11.297 0-20.466 9.159-20.466 20.466v394.403c0 11.297 9.169 20.466 20.466 20.466 11.308 0 20.466-9.169 20.466-20.466zM296.154 225.275v-267.881c0-11.308-9.169-20.466-20.466-20.466-11.308 0-20.466 9.159-20.466 20.466v267.881c0 11.308 9.159 20.466 20.466 20.466 11.297 0 20.466-9.159 20.466-20.466zM947.693 351.797c0-11.308-9.159-20.466-20.466-20.466h-245.082c-11.308 0-20.466 9.159-20.466 20.466 0 11.297 9.159 20.466 20.466 20.466h245.082c11.308 0 20.466-9.169 20.466-20.466zM430.801 351.797c0-11.308-9.169-20.466-20.466-20.466h-136.949c-11.297 0-20.466 9.159-20.466 20.466 0 11.297 9.169 20.466 20.466 20.466h136.949c11.297 0 20.466-9.169 20.466-20.466z"  horiz-adv-x="1024" />

    
    <glyph glyph-name="computer" unicode="&#58893;" d="M971.111442 767.821689 52.888558 767.821689c-11.307533 0-20.466124-9.15859-20.466124-20.466124l0-612.141768c0-11.307533 9.15859-20.466124 20.466124-20.466124l918.222885 0c11.2973 0 20.466124 9.15859 20.466124 20.466124l0 612.141768C991.577566 758.663098 982.408743 767.821689 971.111442 767.821689zM950.645318 155.679921 73.354682 155.679921l0 571.20952 877.290637 0L950.645318 155.679921zM787.520077 53.584662c0-11.2973-9.15859-20.466124-20.466124-20.466124l-510.11814 0c-11.307533 0-20.466124 9.168824-20.466124 20.466124 0 11.307533 9.15859 20.466124 20.466124 20.466124l510.11814 0C778.361487 74.050786 787.520077 64.892195 787.520077 53.584662z"  horiz-adv-x="1024" />

    
    <glyph glyph-name="delete" unicode="&#58895;" d="M854.357322 610.048339l-34.659381-663.552671-0.030699-0.378623c-2.548032-28.499078-26.759457-50.837852-55.115272-50.837852l-474.844775 0c-28.355815 0-52.577472 22.338774-55.125505 50.837852l-0.051165 0.757247-34.618449 663.174048c-0.583285 11.2973 8.084119 20.916379 19.371186 21.509896 11.2973 0.593518 20.916379-8.084119 21.509896-19.371186l34.58775-662.703327c0.798179-7.101745 7.41897-13.272281 14.326287-13.272281l474.844775 0c6.897084 0 13.517875 6.170536 14.316054 13.262048l34.608216 662.71356c0.593518 11.287067 10.212596 19.954471 21.509896 19.371186C846.273203 630.964718 854.940606 621.335407 854.357322 610.048339zM936.191118 754.283348c0-11.307533-9.15859-20.466124-20.466124-20.466124l-265.875416 0c-11.307533 0-20.466124 9.15859-20.466124 20.466124l0 61.35744c0 11.266601-9.168824 20.435425-20.435425 20.435425l-163.616428 0c-11.276834 0-20.445658-9.168824-20.445658-20.435425l0-61.35744c0-11.307533-9.15859-20.466124-20.466124-20.466124l-265.875416 0c-11.2973 0-20.466124 9.15859-20.466124 20.466124 0 11.307533 9.168824 20.466124 20.466124 20.466124l245.409292 0 0 40.891316c0 33.840736 27.53717 61.367673 61.377906 61.367673l163.616428 0c33.830503 0 61.367673-27.526937 61.367673-61.367673l0-40.891316 245.409292 0C927.032528 774.749472 936.191118 765.590881 936.191118 754.283348zM639.636982 590.66692l0-572.662615c0-11.2973-9.168824-20.466124-20.466124-20.466124-11.307533 0-20.466124 9.168824-20.466124 20.466124l0 572.662615c0 11.307533 9.15859 20.466124 20.466124 20.466124C630.468159 611.133044 639.636982 601.974453 639.636982 590.66692zM455.564663 590.66692l0-572.662615c0-11.2973-9.15859-20.466124-20.466124-20.466124-11.2973 0-20.466124 9.168824-20.466124 20.466124l0 572.662615c0 11.307533 9.168824 20.466124 20.466124 20.466124C446.406073 611.133044 455.564663 601.974453 455.564663 590.66692z"  horiz-adv-x="1024" />

    
    <glyph glyph-name="download" unicode="&#58900;" d="M1022.955204 373.429247c0-100.19191-81.516572-181.698249-181.718715-181.698249l-185.637977 0c-11.2973 0-20.466124 9.168824-20.466124 20.466124 0 11.307533 9.168824 20.466124 20.466124 20.466124l185.637977 0c77.628008 0 140.786467 63.148226 140.786467 140.766001 0 77.423347-62.841234 140.448776-140.203182 140.766001-0.419556-0.030699-0.818645-0.051165-1.217734-0.061398-5.945409-0.143263-11.686157 2.292206-15.687284 6.702656-4.001127 4.400217-5.894244 10.335393-5.167696 16.250102 1.330298 10.806113 1.944282 19.760043 1.944282 28.192086 0 60.763922-23.658839 117.884874-66.617234 160.833035-42.968627 42.968627-100.089579 66.617234-160.843268 66.617234-47.368844 0-92.742241-14.449084-131.208321-41.781592-37.616736-26.738991-65.952084-63.700811-81.925894-106.884332-2.425236-6.538927-8.012488-11.399631-14.827707-12.893658-6.815219-1.483794-13.927197 0.603751-18.859533 5.54632-19.289322 19.330254-44.943608 29.972639-72.245418 29.972639-56.322773 0-102.146425-45.813419-102.146425-102.125959 0-0.317225 0.040932-0.982374 0.092098-1.627057 0.061398-0.920976 0.122797-1.831718 0.153496-2.762927 0.337691-9.465582-5.863545-17.928325-15.001669-20.455891-32.356942-8.933463-61.541635-28.550243-82.181721-55.217602-21.305235-27.516704-32.571836-60.508096-32.571836-95.41307 0-86.244246 70.188572-156.422585 156.443052-156.422585l169.981393 0c11.2973 0 20.466124-9.15859 20.466124-20.466124 0-11.2973-9.168824-20.466124-20.466124-20.466124l-169.981393 0c-108.828614 0-197.3753 88.536452-197.3753 197.354833 0 44.053332 14.223956 85.712127 41.126676 120.473839 22.809495 29.460985 53.897537 52.086285 88.710414 64.816215 5.065366 74.322729 67.149353 133.2447 142.751215 133.2447 28.386514 0 55.504128-8.217149 78.651314-23.52581 19.657712 39.868009 48.842405 74.169233 85.497233 100.212376 45.434795 32.295544 99.004875 49.354058 154.918325 49.354058 71.692832 0 139.087778-27.915793 189.782368-78.600149 50.694589-50.694589 78.610382-118.089535 78.610382-189.782368 0-3.704368-0.102331-7.470135-0.296759-11.368932C952.633602 543.431106 1022.955204 466.488713 1022.955204 373.429247zM629.258611 75.288986l-102.023628-102.013395c-3.990894-4.001127-9.230222-5.996574-14.46955-5.996574s-10.478655 1.995447-14.46955 5.996574l-102.023628 102.013395c-7.992021 7.992021-7.992021 20.947078 0 28.939099s20.947078 8.002254 28.939099 0l67.087954-67.077721 0 358.699522c0 11.2973 9.15859 20.466124 20.466124 20.466124 11.307533 0 20.466124-9.168824 20.466124-20.466124l0-358.699522 67.087954 67.077721c7.992021 8.002254 20.947078 7.992021 28.939099 0S637.250632 83.281007 629.258611 75.288986z"  horiz-adv-x="1024" />

    
    <glyph glyph-name="edit" unicode="&#58901;" d="M236.352009-27.205363l-2.865257-0.76748 463.946564 0c11.307533 0 20.466124-9.15859 20.466124-20.466124 0-11.2973-9.15859-20.466124-20.466124-20.466124L78.220502-68.90509c-0.010233 0-0.010233 0-0.020466 0-0.347924 0-0.685615 0.010233-1.033539 0.030699-0.143263 0-0.276293 0.010233-0.419556 0.030699-0.409322 0.020466-0.828878 0.061398-1.238201 0.122797-0.76748 0.092098-1.524726 0.23536-2.261507 0.429789-0.306992 0.081864-0.624217 0.163729-0.931209 0.255827-0.23536 0.071631-0.480954 0.143263-0.716314 0.225127-0.23536 0.081864-0.470721 0.173962-0.695848 0.255827 0 0 0 0-0.010233 0-0.225127 0.092098-0.460488 0.184195-0.685615 0.286526-0.23536 0.092098-0.460488 0.194428-0.685615 0.306992-0.296759 0.143263-0.593518 0.286526-0.890276 0.450255-0.296759 0.153496-0.593518 0.317225-0.880043 0.491187-0.583285 0.337691-1.146103 0.716314-1.678222 1.115404-0.225127 0.163729-0.440022 0.327458-0.654916 0.50142-1.166569 0.931209-2.230808 1.995447-3.162016 3.162016-0.173962 0.214894-0.337691 0.429789-0.50142 0.654916-0.613984 0.818645-1.156336 1.688455-1.63729 2.609431-0.143263 0.276293-0.286526 0.562818-0.419556 0.839111-0.102331 0.225127-0.204661 0.450255-0.306992 0.685615-0.194428 0.460488-0.36839 0.920976-0.532119 1.391696-0.153496 0.470721-0.296759 0.941442-0.429789 1.412163-0.184195 0.73678-0.337691 1.473561-0.450255 2.220574-0.092098 0.63445-0.153496 1.289366-0.194428 1.934049 0 0.020466-0.010233 0.030699 0 0.051165-0.010233 0.153496-0.010233 0.306992-0.010233 0.460488-0.010233 0.081864-0.010233 0.173962-0.010233 0.26606-0.010233 0.306992 0 0.624217 0.010233 0.941442 0.010233 0.225127 0.020466 0.440022 0.030699 0.665149 0.040932 0.665149 0.122797 1.330298 0.225127 1.995447 0.030699 0.225127 0.071631 0.440022 0.122797 0.654916 0.040932 0.225127 0.092098 0.440022 0.143263 0.665149 0.051165 0.214894 0.102331 0.440022 0.163729 0.654916l0.153496 0.562818c0.010233 0.081864 0.040932 0.153496 0.061398 0.225127l40.768519 152.032602c0.941442 3.50994 2.793626 6.692423 5.372358 9.250688l633.426537 626.928542c8.032954 7.951089 20.998243 7.889691 28.949332-0.143263 7.951089-8.043187 7.879458-20.998243-0.153496-28.949332l-629.486808-623.039979-30.371728-113.208365 113.320928 30.402427 629.568672 623.121843c8.032954 7.951089 20.998243 7.879458 28.949332-0.153496 7.951089-8.032954 7.879458-20.98801-0.153496-28.939099l-633.426537-626.938776C242.911402-24.483368 239.780085-26.284387 236.352009-27.205363zM921.621285 648.022209c-0.100284-0.079818 16.818037 16.838503 16.818037 16.838503 38.797631 38.797631 38.797631 101.685937 0.040932 140.453892-38.836517 38.807864-101.706403 38.777165-140.484591 0 0 0-16.935718-16.937764-16.838503-16.838503L921.621285 648.022209zM57.774845-47.773817c-0.010233-0.317225-0.020466-0.63445-0.010233-0.941442-0.010233 0.092098-0.010233 0.184195-0.010233 0.276293C57.754379-48.213839 57.754379-47.988712 57.774845-47.773817zM58.030671-45.113221c-0.102331-0.665149-0.184195-1.330298-0.225127-1.995447C57.836243-46.433286 57.918108-45.768137 58.030671-45.113221zM57.979506-51.42702c-0.102331 0.63445-0.163729 1.279133-0.194428 1.934049C57.82601-50.137655 57.887408-50.792571 57.979506-51.42702zM58.613956-42.575422c-0.122797-0.399089-0.23536-0.808412-0.317225-1.217734 0.051165 0.214894 0.102331 0.440022 0.163729 0.654916L58.613956-42.575422z"  horiz-adv-x="1024" />

    
    <glyph glyph-name="arrow-up" unicode="&#58909;" d="M820.094 236.164c-5.176 0-10.354 1.95-14.339 5.863l-278.621 273.604-278.621-273.603c-8.065-7.919-21.022-7.803-28.942 0.264-7.919 8.065-7.802 21.022 0.263 28.942l292.96 287.684c7.96 7.818 20.718 7.818 28.678 0l292.96-287.684c8.066-7.919 8.182-20.877 0.264-28.942-4.007-4.081-9.304-6.128-14.604-6.128z"  horiz-adv-x="1024" />

    
    <glyph glyph-name="arrow-left" unicode="&#58920;" d="M670.978 87.046c-5.301 0-10.596 2.046-14.604 6.127l-287.684 292.96c-7.818 7.961-7.818 20.718 0 28.679l287.684 292.96c7.92 8.066 20.877 8.182 28.942 0.263 8.066-7.919 8.182-20.877 0.264-28.942l-273.603-278.62 273.603-278.621c7.918-8.065 7.802-21.023-0.264-28.942-3.985-3.913-9.163-5.865-14.339-5.865z"  horiz-adv-x="1024" />

    
    <glyph glyph-name="lock" unicode="&#58925;" d="M894.419759 516.697231l-122.366955 0 0 101.96223c0 65.430198-25.470091 126.941134-71.723531 173.194574-46.25344 46.25344-107.764376 71.723531-173.194574 71.723531s-126.941134-25.470091-173.194574-71.723531-71.723531-107.764376-71.723531-173.194574l0-101.96223-122.366955 0c-11.307533 0-20.466124-9.168824-20.466124-20.466124l0-571.34255c0-11.2973 9.15859-20.466124 20.466124-20.466124l734.570121 0c11.307533 0 20.466124 9.168824 20.466124 20.466124l0 571.34255C914.885883 507.528408 905.727293 516.697231 894.419759 516.697231zM323.148841 618.659461c0 54.501288 21.213137 105.727996 59.740616 144.255475 38.517245 38.517245 89.743954 59.730383 144.245242 59.730383s105.727996-21.213137 144.245242-59.730383c38.527478-38.527478 59.740616-89.754187 59.740616-144.255475l0-101.96223-407.971715 0L323.148841 618.659461 323.148841 618.659461zM873.953635-54.645318l-693.637874 0 0 530.410302 693.637874 0L873.953635-54.645318zM588.348875 251.3744c0-18.071587-7.971555-34.137495-20.404726-45.332465l0-56.691163c0-22.543436-18.276249-40.819684-40.809451-40.819684-22.533202 0-40.809451 18.276249-40.809451 40.819684l0 56.691163c-12.43317 11.19497-20.404726 27.260877-20.404726 45.332465 0 33.810037 27.40414 61.214177 61.214177 61.214177C560.954969 312.588577 588.348875 285.184437 588.348875 251.3744z"  horiz-adv-x="1024" />

    
    <glyph glyph-name="mail" unicode="&#58926;" d="M961.870987 576.248535l0 150.640905L64.175625 726.889441l0-652.838655 897.695363 0 0 342.705246c0 11.307533 9.15859 20.466124 20.466124 20.466124 11.2973 0 20.466124-9.15859 20.466124-20.466124l0-363.17137c0-11.2973-9.168824-20.466124-20.466124-20.466124L43.709501 33.118538c-11.307533 0-20.466124 9.168824-20.466124 20.466124l0 693.770903c0 11.307533 9.15859 20.466124 20.466124 20.466124l938.62761 0c11.2973 0 20.466124-9.15859 20.466124-20.466124l0-182.025707c0-6.815219-3.40761-13.190417-9.066493-16.986883l-428.499238-287.589974c-6.753821-4.523013-15.533788-4.635577-22.379707-0.276293l-383.361201 243.587807c-9.537214 6.057973-12.361539 18.706037-6.293333 28.243251 6.057973 9.537214 18.706037 12.361539 28.243251 6.303566l372.074134-236.414431L961.870987 576.248535z"  horiz-adv-x="1024" />

    
    <glyph glyph-name="menu" unicode="&#58928;" d="M916.238694 605.277686 138.030703 605.277686c-11.30344 0-20.466124 9.162684-20.466124 20.466124s9.162684 20.466124 20.466124 20.466124L916.238694 646.209934c11.30344 0 20.466124-9.162684 20.466124-20.466124S927.542134 605.277686 916.238694 605.277686zM936.702772 400.47523c0-11.307533-9.15859-20.466124-20.466124-20.466124l-778.203898 0c-11.307533 0-20.466124 9.15859-20.466124 20.466124 0 11.2973 9.15859 20.466124 20.466124 20.466124l778.203898 0C927.544181 420.941354 936.702772 411.77253 936.702772 400.47523zM916.238694 154.736433 138.030703 154.736433c-11.30344 0-20.466124 9.162684-20.466124 20.466124s9.162684 20.466124 20.466124 20.466124L916.238694 195.668681c11.30344 0 20.466124-9.162684 20.466124-20.466124S927.542134 154.736433 916.238694 154.736433z"  horiz-adv-x="1024" />

    
    <glyph glyph-name="phone" unicode="&#58939;" d="M823.00322 871.487723l-591.737042 0c-11.307533 0-20.466124-9.15859-20.466124-20.466124l0-934.043199c0-11.2973 9.15859-20.466124 20.466124-20.466124l591.737042 0c11.307533 0 20.466124 9.168824 20.466124 20.466124L843.469344 851.021599C843.469344 862.329133 834.310753 871.487723 823.00322 871.487723zM802.537096 122.03873l-480.135268 0c-11.307533 0-20.466124-9.168824-20.466124-20.466124 0-11.307533 9.15859-20.466124 20.466124-20.466124l480.135268 0 0-143.661957-550.804794 0L251.732301 830.555475l550.804794 0L802.537096 122.03873zM527.134699 9.485281m-48.461735 0a47.358 47.358 0 1 0 96.92347 0 47.358 47.358 0 1 0-96.92347 0Z"  horiz-adv-x="1024" />

    
    <glyph glyph-name="arrow-right" unicode="&#58946;" d="M383.292 87.046c-5.176 0-10.354 1.95-14.339 5.863-8.065 7.919-8.182 20.877-0.263 28.942l273.602 278.621-273.602 278.622c-7.919 8.065-7.802 21.023 0.263 28.942 8.066 7.918 21.023 7.803 28.942-0.263l287.685-292.96c7.818-7.961 7.818-20.718 0-28.679l-287.685-292.959c-4.007-4.081-9.304-6.128-14.604-6.128z"  horiz-adv-x="1024" />

    
    <glyph glyph-name="search" unicode="&#58952;" d="M760.090355 632.448512c-17.47807 41.321104-42.487673 78.426187-74.343195 110.281709s-68.960605 56.865125-110.281709 74.343195c-42.784432 18.092054-88.219227 27.27111-135.055952 27.27111-46.826492 0-92.261287-9.179057-135.055952-27.27111-41.310871-17.47807-78.415954-42.487673-110.271476-74.343195s-56.865125-68.960605-74.343195-110.281709c-18.092054-42.784432-27.27111-88.219227-27.27111-135.055952 0-46.826492 9.179057-92.261287 27.27111-135.055952 17.47807-41.310871 42.487673-78.415954 74.343195-110.271476s68.960605-56.865125 110.271476-74.343195c42.794665-18.092054 88.22946-27.27111 135.055952-27.27111 46.836725 0 92.27152 9.179057 135.055952 27.27111 41.321104 17.47807 78.426187 42.487673 110.281709 74.343195s56.865125 68.960605 74.343195 110.271476c18.092054 42.794665 27.27111 88.22946 27.27111 135.055952C787.361465 544.229285 778.182408 589.66408 760.090355 632.448512zM656.797827 281.014464c-57.796334-57.796334-134.64663-89.63139-216.388329-89.63139s-158.581762 31.835056-216.378096 89.63139c-57.796334 57.786101-89.63139 134.636397-89.63139 216.378096s31.835056 158.591995 89.63139 216.388329 134.636397 89.63139 216.378096 89.63139 158.591995-31.835056 216.388329-89.63139c57.796334-57.796334 89.63139-134.64663 89.63139-216.388329S714.594161 338.800565 656.797827 281.014464zM954.805058-37.397493c-3.990894-4.001127-9.230222-5.996574-14.46955-5.996574s-10.478655 1.995447-14.46955 5.996574l-193.855126 193.844893c-7.981788 7.992021-7.981788 20.947078 0 28.939099 8.002254 7.992021 20.957311 7.992021 28.949332 0l193.844893-193.844893C962.79708-16.450415 962.79708-29.405471 954.805058-37.397493z"  horiz-adv-x="1024" />

    
    <glyph glyph-name="service" unicode="&#58953;" d="M986.386334 449.583694c-19.166525 28.744671-44.135196 46.816259-71.590502 52.198849-6.068206 18.787902-20.967544 33.636075-39.786145 39.622416-9.117658 88.49552-49.947576 170.329317-115.561969 231.195569-68.060095 63.137992-156.698878 97.909937-249.594615 97.909937-92.783173 0-181.350324-34.700313-249.389954-97.715509-65.726957-60.876486-106.648972-142.792147-115.756397-231.389998-18.818601-5.986341-33.728172-20.834514-39.796378-39.622416-27.455305-5.382591-52.423977-23.454178-71.590502-52.198849C11.850909 417.380248 0.021489 374.94374 0.021489 330.092229c0-44.831045 11.82942-87.25732 33.298384-119.470999 19.166525-28.754904 44.135196-46.826492 71.590502-52.219315 7.951089-24.620747 31.077809-42.47744 58.307987-42.47744 33.779338 0 61.244876 27.475771 61.244876 61.244876l0 305.845757c0 25.838482-16.065907 47.982828-38.742373 56.967456 8.65717 77.628008 44.841278 149.32084 102.555747 202.778356 60.446697 55.985082 139.138944 86.817298 221.576491 86.817298 82.529645 0 161.293523-30.893614 221.760686-86.99126 57.622372-53.447283 93.734848-125.068484 102.371552-202.614627-22.666232-8.984628-38.742373-31.118741-38.742373-56.957223l0-305.845757c0-26.370601 16.751522-48.89357 40.164768-57.499575-6.109138-80.30907-57.110719-125.938294-142.045133-125.938294l-64.611553 0c-8.442276 23.740704-31.128975 40.778752-57.724703 40.778752l-101.951997 0c-33.769105 0-61.244876-27.475771-61.244876-61.244876s27.475771-61.244876 61.244876-61.244876L571.026348-87.979518c26.595728 0 49.282427 17.038048 57.724703 40.778752l64.611553 0c107.406219 0 176.233793 63.281255 183.028547 166.440753l0.010233 0c18.163685 6.262634 32.489972 20.844747 38.394449 39.161928 27.455305 5.392824 52.423977 23.464411 71.590502 52.219315 21.468964 32.213679 33.298384 74.639954 33.298384 119.470999C1019.684718 374.94374 1007.855298 417.380248 986.386334 449.583694zM183.53099 177.169351c0-11.205203-9.107425-20.312628-20.312628-20.312628-11.19497 0-20.312628 9.107425-20.312628 20.312628 0 11.2973-9.15859 20.466124-20.466124 20.466124-44.165896 0-81.485873 60.651358-81.485873 132.456754s37.319977 132.456754 81.485873 132.456754c11.307533 0 20.466124 9.168824 20.466124 20.466124 0 11.205203 9.117658 20.312628 20.312628 20.312628 11.205203 0 20.312628-9.107425 20.312628-20.312628L183.53099 177.169351zM571.026348-47.04727l-101.951997 0c-11.205203 0-20.312628 9.107425-20.312628 20.312628s9.107425 20.312628 20.312628 20.312628L571.026348-6.422014c11.19497 0 20.312628-9.107425 20.312628-20.312628S582.221318-47.04727 571.026348-47.04727zM897.266597 197.635475c-11.307533 0-20.466124-9.168824-20.466124-20.466124 0-11.205203-9.117658-20.312628-20.312628-20.312628-11.205203 0-20.312628 9.107425-20.312628 20.312628l0 305.845757c0 11.205203 9.107425 20.312628 20.312628 20.312628 11.19497 0 20.312628-9.107425 20.312628-20.312628 0-11.2973 9.15859-20.466124 20.466124-20.466124 44.165896 0 81.485873-60.651358 81.485873-132.456754S941.432493 197.635475 897.266597 197.635475z"  horiz-adv-x="1024" />

    
    <glyph glyph-name="setting" unicode="&#58956;" d="M1004.253 467.102l-132.672 21.674c-7.798 27.015-18.563 52.997-32.122 77.526l77.434 110.374c5.71 8.135 4.748 19.197-2.282 26.227l-86.582 86.541c-7.092 7.092-18.276 7.992-26.412 2.139l-108.747-78.16c-24.723 13.763-50.899 24.641-78.078 32.47l-23.157 132.16c-1.719 9.783-10.223 16.925-20.159 16.925h-122.439c-10.028 0-18.583-7.265-20.19-17.161l-21.459-131.444c-27.384-7.777-53.601-18.542-78.232-32.132l-108.43 77.464c-8.146 5.812-19.3 4.891-26.371-2.18l-86.582-86.541c-7.020-7.020-7.992-18.072-2.302-26.207l76.328-109.156c-13.856-24.918-24.825-51.309-32.736-78.723l-130.912-21.807c-9.875-1.637-17.11-10.182-17.11-20.19v-122.428c0-9.926 7.122-18.42 16.895-20.149l130.901-23.198c7.859-27.404 18.819-53.785 32.715-78.723l-77.26-108.061c-5.812-8.146-4.902-19.289 2.169-26.371l86.551-86.633c7.020-7.030 18.082-8.002 26.217-2.292l109.32 76.564c24.836-13.743 51.114-24.6 78.395-32.388l21.909-131.587c1.637-9.875 10.182-17.11 20.18-17.11h122.439c9.916 0 18.409 7.122 20.149 16.895l23.464 132.221c27.271 7.931 53.427 18.88 78.037 32.664l110.098-77.249c8.135-5.72 19.197-4.748 26.227 2.282l86.561 86.633c7.092 7.092 7.992 18.286 2.139 26.422l-78.529 109.054c13.569 24.57 24.304 50.562 32.029 77.567l132.835 23.301c9.793 1.719 16.936 10.223 16.936 20.159l-0 122.428c0 10.028-7.276 18.583-17.171 20.2zM980.492 341.665l-128.773-22.584c-7.982-1.402-14.388-7.378-16.332-15.237-7.951-32.122-20.62-62.77-37.637-91.105-4.206-7.010-3.837-15.851 0.941-22.492l76.073-105.656-62.104-62.156-106.762 74.916c-6.662 4.677-15.452 4.963-22.4 0.727-28.233-17.192-58.953-30.065-91.32-38.241-7.798-1.975-13.723-8.34-15.135-16.271l-22.728-128.108h-87.933l-21.223 127.504c-1.341 8.064-7.347 14.551-15.288 16.516-32.357 7.982-63.261 20.742-91.842 37.913-6.928 4.175-15.657 3.868-22.277-0.778l-105.922-74.19-62.145 62.207 74.865 104.715c4.758 6.651 5.096 15.503 0.849 22.503-17.355 28.663-30.239 59.649-38.292 92.077-1.944 7.849-8.33 13.815-16.291 15.227l-126.839 22.482v87.933l126.788 21.111c8.043 1.341 14.521 7.317 16.496 15.227 8.125 32.51 21.019 63.527 38.313 92.179 4.185 6.928 3.889 15.667-0.747 22.298l-73.975 105.789 62.186 62.145 105.032-75.039c6.641-4.738 15.462-5.086 22.451-0.88 28.284 17.007 59.178 29.696 91.811 37.709 7.961 1.955 13.999 8.483 15.319 16.578l20.783 127.361h87.851l22.441-128.057c1.392-7.972 7.347-14.367 15.206-16.332 32.265-8.043 63.066-20.865 91.535-38.098 7.010-4.247 15.882-3.899 22.543 0.89l105.38 75.755 62.125-62.094-75.049-106.976c-4.646-6.621-4.963-15.36-0.788-22.288 16.987-28.284 29.676-58.942 37.719-91.095 1.975-7.931 8.483-13.927 16.557-15.237l128.537-20.998 0-87.851zM694.938 384.756c0-11.308-9.159-20.466-20.466-20.466-11.297 0-20.466 9.159-20.466 20.466 0 78.723-64.049 142.772-142.772 142.772s-142.772-64.049-142.772-142.772 64.049-142.772 142.772-142.772c32.94 0 63.885 10.898 89.488 31.518 8.8 7.092 21.684 5.71 28.775-3.101 7.092-8.8 5.7-21.684-3.101-28.775-32.48-26.166-73.381-40.574-115.163-40.574-101.297 0-183.704 82.407-183.704 183.704s82.407 183.704 183.704 183.704 183.704-82.407 183.704-183.704z"  horiz-adv-x="1024" />

    
    <glyph glyph-name="arrow-down" unicode="&#58964;" d="M527.135 230.024c-5.18 0-10.359 1.955-14.34 5.863l-292.96 287.686c-8.065 7.919-8.182 20.877-0.263 28.942 7.92 8.065 20.879 8.181 28.942 0.263l278.62-273.603 278.621 273.603c8.064 7.918 21.023 7.802 28.942-0.263 7.918-8.065 7.802-21.023-0.264-28.942l-292.958-287.685c-3.981-3.909-9.161-5.864-14.34-5.864z"  horiz-adv-x="1024" />

    
    <glyph glyph-name="sign-out" unicode="&#58954;" d="M509.658 394.158c-19.838 0-35.976 16.232-35.976 36.187l0 366.017c0 19.954 16.139 36.187 35.976 36.187 19.843 0 35.981-16.233 35.981-36.187v-366.013c-0-19.955-16.139-36.191-35.981-36.191v0zM509.663-20.588c-102.23 0-198.345 40.022-270.639 112.69-72.299 72.676-112.115 169.302-112.115 272.083 0 72.341 20.080 142.83 58.075 203.849 36.154 58.064 86.975 105.396 147.184 137.131l0.076-0.126 3.788 1.377c3.013 1.098 6.18 1.654 9.412 1.654 15.153 0 27.479-12.328 27.479-27.476 0-7.996-3.489-15.592-9.571-20.828l-1.424-1.223-0.42-0.233-0.211-0.149c-1.57-1.107-3.233-2.041-4.943-2.785l-0.253-0.106-0.238-0.141c-108.515-62.576-178.638-176.777-178.638-290.942 0-171.693 161.558-334.026 332.437-334.026s332.441 162.332 332.441 334.026c0 114.43-72.863 231.463-181.798 292.766l0.164 0.275-3.013 2.611c-6.025 5.227-9.487 12.793-9.487 20.758 0 15.148 12.328 27.476 27.476 27.476 3.031 0 6.030-0.499 8.908-1.485l0.667-0.229c2.313-0.864 4.513-2.046 6.535-3.517l0.253-0.182 0.271-0.146c123.572-67.477 200.336-197.112 200.336-338.327 0-102.781-39.816-199.412-112.114-272.083-72.288-72.667-168.404-112.69-270.639-112.69v0zM509.663-20.588z"  horiz-adv-x="1024" />

    
    <glyph glyph-name="weixin" unicode="&#58940;" d="M498.816 466.944c26.336 0 43.936 17.632 43.936 43.904 0 26.56-17.568 43.744-43.936 43.744s-52.832-17.184-52.832-43.744C446.016 484.576 472.48 466.944 498.816 466.944zM253.088 554.592c-26.336 0-52.96-17.184-52.96-43.744 0-26.272 26.624-43.904 52.96-43.904 26.24 0 43.808 17.632 43.808 43.904C296.864 537.408 279.328 554.592 253.088 554.592zM1024 185.888c0 138.88-128.832 257.216-286.976 269.536 0.224 1.728 0.32 3.52-0.064 5.312-31.712 147.84-190.688 259.296-369.824 259.296C164.704 720.032 0 578.88 0 405.376c0-93.088 47.52-176.96 137.568-243.104l-31.392-94.368c-2.016-6.144-0.192-12.896 4.704-17.152 2.976-2.56 6.72-3.904 10.496-3.904 2.432 0 4.896 0.576 7.168 1.696L246.4 107.52l14.528-2.944c36.288-7.456 67.616-13.92 106.208-13.92 11.36 0 22.88 0.512 34.176 1.472 4.576 0.384 8.448 2.688 11.072 6.016 42.496-106.336 159.616-183.104 297.44-183.104 35.296 0 71.04 8.512 103.104 16.544l90.848-49.664c2.4-1.312 5.056-1.984 7.68-1.984 3.584 0 7.168 1.216 10.048 3.552 5.056 4.096 7.136 10.848 5.248 17.024l-23.2 77.152C981.344 39.136 1024 112.672 1024 185.888zM398.592 124.032c-10.4-0.896-20.96-1.344-31.424-1.344-35.328 0-65.216 6.112-99.776 13.248L247.296 140c-3.456 0.736-7.104 0.256-10.272-1.376l-88.288-44.192 22.944 68.928c2.24 6.752-0.224 14.112-6.016 18.176C76.96 243.36 32 318.688 32 405.376c0 155.84 150.336 282.656 335.136 282.656 163.36 0 308-99.392 337.856-231.584-171.296-2.24-309.888-122.656-309.888-270.56 0-21.504 3.264-42.336 8.768-62.432C402.208 123.872 400.448 124.192 398.592 124.032zM875.456-3.552c-5.344-4.032-7.616-10.976-5.696-17.376l15.136-50.336-62.112 33.984c-2.368 1.312-5.024 1.984-7.68 1.984-1.312 0-2.624-0.16-3.904-0.512-33.312-8.416-67.776-17.088-101.344-17.088-155.904 0-282.72 107.136-282.72 238.816 0 131.68 126.816 238.784 282.72 238.784 152.928 0 282.144-109.344 282.144-238.784C992 120.256 950.624 52.96 875.456-3.552zM612.992 300.032c-17.568 0-35.136-17.696-35.136-35.232 0-17.664 17.568-35.104 35.136-35.104 26.4 0 43.84 17.44 43.84 35.104C656.832 282.368 639.392 300.032 612.992 300.032zM806.016 300.032c-17.312 0-34.88-17.696-34.88-35.232 0-17.664 17.568-35.104 34.88-35.104 26.304 0 44.064 17.44 44.064 35.104C850.08 282.368 832.352 300.032 806.016 300.032z"  horiz-adv-x="1024" />

    
    <glyph glyph-name="bell" unicode="&#58887;" d="M927.585 118.491c-102.406 80.437-129.59 197.98-153.559 301.695-27.031 116.998-53.156 228.151-180.246 258.728-9.999 32.67-40.092 56.513-76.059 56.513-35.374 0-64.841-23.155-75.342-54.998-13.374-2.687-25.372-6.36-36.748-10.484 2.219-3.171 4.312-6.531 6.187-10.14 3.283-6.343 5.469-12.813 6.969-19.203 26.531 9.437 58.687 14.828 98.935 14.828 169.121 0 193.839-106.997 225.15-242.446 23.654-102.466 50.311-217.806 146.183-303.882-120.903-57.015-312.774-61.655-371.334-61.655-195.246 0-308.054 31.391-371.397 61.625 94.249 85.123 116.934 198.994 137.091 300.148 15.094 75.857 28.593 142.809 68.591 187.713-6.751 6.078-12.938 13.641-17.656 22.796-0.623 1.203-1.001 2.453-1.562 3.672-49.279-51.607-64.967-128.387-80.779-207.932-21.312-107.090-43.342-217.821-144.154-296.976l-18.748-14.717 20.718-11.781c69.592-39.467 172.339-64.015 300.022-72.749 12.499-48.138 55.81-83.793 107.872-83.793 52.156 0 95.184 35.921 107.559 84.2 92.934 6.952 217.181 25.155 300.334 72.342l20.718 11.781-18.745 14.716zM517.72 687.429c-12.718 0-24.687-0.531-36.124-1.453 8.781 10.406 21.436 17.452 36.124 17.452 15.031 0 28.281-7.016 37.062-17.843-11.687 1.157-23.937 1.844-37.062 1.844zM517.72-32.55c-33.374 0-61.435 20.656-73.342 49.717 23.718-1.047 48.061-1.719 73.342-1.719 16.094 0 41.969 0.36 73.653 2-11.843-29.233-40.154-49.998-73.653-49.998z"  horiz-adv-x="1024" />

    
    <glyph glyph-name="team" unicode="&#59363;" d="M606.669 785.51c-126.899 0-230.118-103.245-230.118-230.144 0-87.706 49.331-164.045 121.677-202.88-150.63-46.413-260.429-186.906-260.429-352.589 0-12.16 9.83-21.965 21.965-21.965 12.134 0 21.965 9.805 21.965 21.965 0 179.174 145.792 324.915 323.328 325.018 2.432-0.23 4.813-0.051 7.066 0.486 124.365 2.918 224.666 104.909 224.666 229.965-0 126.925-103.245 230.144-230.118 230.144v0zM606.669 369.229c-102.656 0-186.189 83.507-186.189 186.138 0 102.707 83.507 186.189 186.189 186.189 102.656 0 186.163-83.507 186.163-186.189 0-102.656-83.507-186.138-186.163-186.138v0zM867.866 260.326c-8.576 8.602-22.477 8.602-31.078 0.051-8.576-8.576-8.602-22.477-0.051-31.078 61.184-61.338 94.848-142.848 94.848-229.402 0-12.16 9.83-21.965 21.965-21.965 12.134 0 21.965 9.805 21.965 21.965 0.026 98.278-38.195 190.822-107.648 260.429v0zM374.221 363.597c0 0 0 0.051 0 0.077s0 0.051 0 0.051c0 12.16-9.83 21.99-21.965 21.99-79.718 0-144.563 69.299-144.563 154.445 0 85.146 64.845 154.445 144.563 154.445 12.134 0 21.965 9.856 21.965 21.965 0 12.134-9.83 21.965-21.965 21.965-103.936 0-188.493-89.011-188.493-198.4 0-72.832 37.504-136.602 93.261-171.085-118.579-42.086-204.262-160.41-204.262-299.52 0-12.134 9.83-21.965 21.965-21.965 12.134 0 21.965 9.83 21.965 21.965 0 150.016 114.637 272.026 255.59 272.026 12.109 0.051 21.914 9.882 21.939 22.042v0zM374.221 363.597z"  horiz-adv-x="1024" />

    
    <glyph glyph-name="book" unicode="&#59043;" d="M671.289 77.619c-46.649 0-124.405-13.744-136.533-45.466v-0.705c-27.034-0.705-33.428 0-45.511 0-12.106 31.767-89.884 45.511-136.533 45.511h-250.311v659.911h272.156c58.732 0 109.522-30.174 137.421-74.706 27.898 44.533 78.711 74.706 137.466 74.706h272.156v-659.251h-250.311zM489.244 600.337c0 53.202-57.458 91.022-113.778 91.022h-227.556v-568.889c0 0 162.179 0 204.8 0 45.147 0.796 116.349-0.478 136.533-33.724v25.486c-0.865 31.494-0.046 74.502 0 76.277l0 395.15c0 0.023 0 0.023 0 0.046v14.632zM876.089 691.405h-227.556c-56.32 0-113.778-37.797-113.778-90.931v-14.905c0-0.023 0-0.023 0-0.046v-394.468c0.046-1.752 0.865-44.76 0-76.186v-25.463c20.184 33.2 91.386 34.497 136.533 33.678 42.621 0 204.8 0 204.8 0l0 568.32z"  horiz-adv-x="1024" />

    
    <glyph glyph-name="gift" unicode="&#58904;" d="M1023.781589 524.0319999999999c0 44.16-36.224 80.064-80.96 80.064l-62.912 0c26.304 25.344 42.688 60.736 42.688 100.032 0 77.312-63.424 140.032-141.632 140.032-79.616 0-131.52-78.144-162.816-151.872-16.768 7.296-37.312 11.84-59.776 11.84-22.4 0-42.944-4.48-59.776-11.84-31.296 73.728-83.2 151.872-162.816 151.872-66.304 0-121.536-45.248-136.96-106.048 12.864-2.624 25.92-6.08 39.168-10.304 10.688 43.904 50.496 76.736 98.112 76.736 58.24 0 101.632-68.8 129.28-136.832-4.416-6.144-6.72-12.736-7.488-19.712 2.176 0.384 4.224 0.768 6.016 1.344-2.624-0.832-4.352-1.92-6.336-3.072-0.064-0.768-0.384-1.408-0.384-2.24 0-12.864 7.36-24.576 19.136-34.304-0.192-0.064-0.256-0.192-0.448-0.256-26.304-8.192-77.312-7.04-170.752 44.032-207.872 113.728-299.584 4.416-300.608 3.264-7.04-8.576-5.696-21.184 2.944-28.096s21.376-5.696 28.48 2.944c0.768 0.96 70.976 84.608 249.536-13.056 64.256-35.2 118.848-52.8 162.88-52.8 8.896 0 17.28 1.024 25.28 2.368 0.64-1.344 1.536-2.752 2.176-4.032l62.336 0 0-160.064-404.736 0 0 120.064c0 22.144 18.112 40 40.512 40l134.336 0c-13.696 6.336-27.712 13.184-42.176 21.12-13.504 7.36-26.624 13.568-39.424 18.944l-52.736 0c-44.736 0-80.96-35.904-80.96-80.064l0-160.064 60.736 0 0-360.128c0-44.224 36.224-80.064 80.96-80.064l303.552 0 40.448 0 303.552 0c44.736 0 80.96 35.84 80.96 80.064l0 359.936 60.928 0L1023.781589 524.0319999999999zM538.213589-36.15999999999997l-303.552 0c-22.336 0-40.448 17.856-40.448 40l0 360.128 344 0L538.213589-36.15999999999997zM659.557589 644.032c0 8.448-2.944 16.448-8.192 23.68 27.648 68.032 70.976 136.832 129.28 136.832 55.808 0 101.184-44.864 101.184-100.032 0-55.104-45.376-100.032-101.184-100.032l-146.752 0C649.701589 615.04 659.557589 628.864 659.557589 644.032zM558.373589 624.0640000000001c-8.128 0-15.936 0.576-23.104 1.536-1.92 3.456-4.544 6.528-8.384 8.384-6.336 3.136-13.312 2.24-19.008-1.024-6.4 3.2-10.176 6.976-10.176 11.072 0 11.072 27.2 20.032 60.672 20.032 33.536 0 60.736-9.024 60.736-20.032C619.109589 633.024 591.909589 624.0640000000001 558.373589 624.0640000000001zM922.597589 3.840000000000032c0-22.144-18.112-40-40.448-40l-303.552 0 0 400.128 344 0L922.597589 3.840000000000032zM983.397589 403.968l-404.736 0 0 160.064 202.368 0 161.856 0c22.4 0 40.512-17.856 40.512-40L983.397589 403.968z"  horiz-adv-x="1025" />

    
    <glyph glyph-name="qq" unicode="&#58903;" d="M681.398-59.388c-12.612 0-25.287 1.066-37.663 3.185-46.307 7.891-85.020 27.357-110.574 55.326-13.867-4.612-30.15-3.090-40.314 0.157-25.428-29.569-69.413-50.040-120.692-55.624-90.809-9.835-162.81 20.66-169.995 69.413-5.945 39.813 36.408 71.076 81.82 89.131-19.922 24.988-35.107 53.93-43.749 83.201-24.722-29.679-45.977-48.581-70.087-42.761-8.032 1.914-19.326 7.938-27.624 25.758-16.439 35.231-16.078 108.394 16.973 174.559 13.364 26.762 32.001 48.691 47.53 65.742-5.882 12.549-11.577 27.749-11.577 41.224 0 22.274 9.726 41.695 28.251 56.691-1.663 12.706-2.463 24.424-2.463 35.561 0 161.1 127.986 287.297 291.376 287.297 161.696 0 293.243-128.88 293.243-287.297l0.047-7.844c0.062-8.126 0.141-17.004-0.377-25.506 15.185-11.106 24.251-26.73 24.251-58.903 0-13.506-1.16-27.937-7.921-39.216 13.036-18.479 27.389-41.35 40.314-61.946l2.776-4.424c31.028-49.397 34.165-135.406 16.157-176.442-8.079-18.4-19.044-23.984-26.839-25.428-3.671-0.674-7.2-0.989-10.605-0.989 0 0 0 0-0.015 0-27.138 0-45.004 18.855-60.66 41.004-9.459-28.283-24.613-57.146-42.401-80.455 53.083-21.741 80.707-52.173 76.519-85.256-5.472-43.406-63.81-76.159-135.702-76.159zM541.884 39.985l8.659-11.545c20.063-26.745 55.075-45.553 98.589-52.989 10.588-1.788 21.459-2.714 32.267-2.714 57.616 0 100.958 25.334 103.829 48.064 2.51 19.765-27.655 42.84-76.832 58.793l-24.502 7.953 17.929 18.511c28.659 29.569 52.644 78.056 58.338 117.884l5.851 40.911 32.252-47.53c15.404-23.466 28.706-43.719 45.381-43.719 0.015 0 0.015 0 0.015 0 1.537 0 3.121 0.157 4.769 0.455 11.232 8.204 22.903 99.703-10.682 153.179l-2.793 4.439c-15.247 24.314-32.534 51.859-46.604 70.511l-10.541 13.961 14.808 9.318c4.377 2.761 5.036 16.502 5.036 24.455 0 27.059-6.761 30.918-16.989 36.738l-9.475 5.396 1.522 10.808c1.255 8.942 1.16 20.769 1.066 31.184l-0.047 8.126c0 140.708-117.131 255.172-261.117 255.172-145.367 0-259.251-112.080-259.251-255.172 0-12.251 1.13-25.459 3.482-40.361l1.6-10.29-8.722-5.663c-14.902-9.71-22.149-21.459-22.149-35.937 0-7.671 4.377-19.969 13.004-36.565l5.208-10.008-7.671-8.298c-16.189-17.506-36.314-39.295-49.883-66.447-26.777-53.616-29.617-117.523-16.895-145.979 2.965-6.651 5.694-8.58 6.275-8.737 0.032 0 0.062 0 0.109 0 11.827 0 31.278 23.906 50.087 47.043l33.099 40.393 4.204-37.883c4.454-40.33 26.777-85.272 58.228-117.319l18.698-19.044-25.585-7.608c-50.071-14.871-85.538-41.38-82.511-61.695 4.298-29.349 65.507-49.727 134.732-42.181 47.859 5.208 87.295 24.675 105.476 52.079l5.083 7.655 12.424-0.674 4.22-2.008c4.314-2.087 21.020-7.577 33.6-0.047l12.409 7.384z"  horiz-adv-x="1024" />

    
    <glyph glyph-name="heart" unicode="&#58998;" d="M900.16 727.424c-52.032 53.674667-121.216 83.242667-194.794667 83.242667-69.226667 0-135.637333-26.496-186.986667-74.666667l-6.4-5.952-6.4 5.994667c-51.349333 48.128-117.738667 74.624-186.965333 74.624-73.578667 0-142.741333-29.589333-194.794667-83.242667-52.330667-54.037333-81.152-125.781333-81.152-202.133333 0-76.373333 28.821333-148.117333 81.152-202.176l330.88-341.290667c15.317333-15.786667 35.669333-24.490667 57.301333-24.490667s41.984 8.704 57.301333 24.490667c0 0 327.232 337.536 330.858667 341.290667 52.352 54.037333 81.173333 125.781333 81.173333 202.176C981.333333 601.621333 952.490667 673.365333 900.16 727.424zM870.933333 353.002667l-330.88-341.290667c-7.466667-7.744-17.450667-12.010667-28.074667-12.010667-10.624 0-20.586667 4.245333-28.074667 12.032l-330.858667 341.248c-44.544 45.952-69.077333 107.114667-69.077333 172.288 0 65.130667 24.533333 126.336 69.077333 172.245333 44.288 45.674667 103.146667 70.826667 165.76 70.826667 58.794667 0 115.242667-22.592 158.997333-63.573333l34.176-32.042667 34.197333 32.042667c43.733333 41.002667 100.202667 63.573333 158.997333 63.573333 62.634667 0 121.493333-25.173333 165.76-70.826667 44.544-45.909333 69.077333-107.114667 69.077333-172.245333C940.010667 460.117333 915.477333 398.954667 870.933333 353.002667zM290.410667 682.666667l-2.282667-0.021333-0.042667-0.042667c-64.938667-1.258667-117.397333-54.485333-117.397333-119.68 0-10.88 8.853333-19.733333 19.733333-19.733333s19.733333 8.853333 19.733333 19.754667c0 44.245333 36.010667 80.277333 80.277333 80.277333 10.88 0 19.733333 8.853333 19.733333 19.733333S301.290667 682.666667 290.410667 682.666667z"  horiz-adv-x="1024" />

    
    <glyph glyph-name="map" unicode="&#58931;" d="M590.437 896c-188.025 0-340.45-152.425-340.45-340.45 0-238.084 340.45-680.899 340.45-680.899s340.45 415.956 340.45 680.899c0 188.025-152.425 340.45-340.45 340.45zM292.543 555.55c0 164.522 133.371 297.894 297.894 297.894s296.906-133.374 297.894-297.894c1.22-203.591-297.894-617.064-297.894-617.064s-297.894 414.693-297.894 617.064zM590.437 725.776c-70.509 0-127.668-57.159-127.668-127.668s57.159-127.668 127.668-127.668c70.509 0 127.668 57.159 127.668 127.668 0 70.508-57.159 127.668-127.668 127.668zM590.437 512.994c-47.007 0-85.112 38.106-85.112 85.112 0 47.007 38.106 85.112 85.112 85.112 47.007 0 85.112-38.106 85.112-85.112 0-47.005-38.106-85.112-85.112-85.112z"  horiz-adv-x="1174" />

    
    <glyph glyph-name="cart" unicode="&#58919;" d="M788.144 252.53h-395.077c-0.413 0-0.782 0.261-0.919 0.652l-183.592 526.115h-166.667v1.946h167.358c0.413 0 0.782-0.262 0.919-0.652l183.593-526.114h393.778l192.044 393.129-586.514-0v1.946h588.072c0.335 0 0.647-0.173 0.827-0.457 0.178-0.284 0.194-0.641 0.048-0.942l-192.996-395.076c-0.163-0.336-0.501-0.546-0.874-0.546zM788.144 232.064h-395.077c-3.145 0-6.175 0.69-8.917 1.946h-4.926l-1.623 4.652c-2.083 2.167-3.729 4.792-4.766 7.749l-178.814 512.42h-172.599v42.879h187.824c3.144 0 6.174-0.69 8.915-1.946h4.929l1.624-4.654c2.082-2.166 3.727-4.788 4.763-7.743l178.815-512.423h366.464l172.047 352.196-574.204-0v42.879h608.538c3.156 0 6.2-0.68 8.96-1.946h22.257l-9.766-19.993c-0.073-3.028-0.796-6.056-2.178-8.892l-193.004-395.094c-1.358-2.793-3.305-5.209-5.649-7.129l-1.442-2.953h-3.292c-2.749-1.257-5.773-1.946-8.881-1.946zM329.064-10.855c-42.894 0-77.793 34.898-77.793 77.794 0 42.895 34.898 77.793 77.793 77.793 42.896 0 77.794-34.898 77.794-77.793-0-42.897-34.898-77.794-77.794-77.794zM329.064 142.785c-41.82 0-75.846-34.025-75.846-75.846 0-41.82 34.025-75.848 75.846-75.848 41.824 0 75.847 34.026 75.847 75.848 0 41.822-34.025 75.846-75.847 75.846zM329.064-31.321c-54.18 0-98.259 44.079-98.259 98.26 0 54.18 44.079 98.259 98.259 98.259 54.181 0 98.26-44.078 98.26-98.259-0-54.181-44.079-98.26-98.26-98.26zM329.064 122.319c-30.536 0-55.38-24.843-55.38-55.38 0-30.539 24.843-55.382 55.38-55.382 30.538 0 55.381 24.844 55.381 55.382 0 30.538-24.844 55.38-55.381 55.38zM817.125-10.855c-42.896 0-77.793 34.898-77.793 77.794 0 42.895 34.898 77.793 77.793 77.793 42.895 0 77.792-34.898 77.792-77.793-0.001-42.897-34.897-77.794-77.792-77.794zM817.125 142.785c-41.823 0-75.847-34.025-75.847-75.846 0-41.82 34.025-75.848 75.847-75.848 41.82 0 75.845 34.026 75.845 75.848 0 41.822-34.025 75.846-75.845 75.846zM817.125-31.321c-54.18 0-98.259 44.079-98.259 98.26 0 54.18 44.079 98.259 98.259 98.259 54.179 0 98.258-44.078 98.258-98.259-0.001-54.181-44.079-98.26-98.258-98.26zM817.125 122.319c-30.538 0-55.381-24.843-55.381-55.38 0-30.539 24.844-55.382 55.381-55.382 30.536 0 55.379 24.844 55.379 55.382 0 30.538-24.844 55.38-55.379 55.38z"  horiz-adv-x="1024" />

    
    <glyph glyph-name="user" unicode="&#58882;" d="M619.52 358.4c74.24 38.4 125.44 115.2 125.44 204.8 0 128-102.4 230.4-230.4 230.4s-230.4-102.4-230.4-230.4c0-89.6 51.2-166.4 125.44-204.8C276.48 312.32 179.2 186.88 179.2 43.52l51.2 0c0 153.6 125.44 281.6 281.6 281.6s281.6-128 281.6-281.6l51.2 0C844.8 186.88 750.08 312.32 619.52 358.4zM332.8 563.2c0 99.84 79.36 179.2 179.2 179.2s179.2-79.36 179.2-179.2-79.36-179.2-179.2-179.2S332.8 463.36 332.8 563.2z"  horiz-adv-x="1024" />

    
    <glyph glyph-name="id-card" unicode="&#58918;" d="M415.53 531.185c37.216 0 67.492-30.277 67.492-67.492s-30.277-67.492-67.492-67.492-67.492 30.277-67.492 67.492 30.278 67.492 67.492 67.492M415.53 568.024c-57.62 0-104.331-46.71-104.331-104.331s46.711-104.331 104.331-104.331 104.331 46.71 104.331 104.331-46.711 104.331-104.331 104.331v0zM412.117 296.174c50.591 0 99.53-9.828 134.267-26.964 25.354-12.508 41.757-28.654 41.825-41.159-0.037-0.273-0.33-1.911-2.378-5.35l-347.427-0c-2.049 3.438-2.341 5.077-2.378 5.349 0.068 12.507 16.47 28.653 41.826 41.16 34.737 17.135 83.675 26.964 134.266 26.964M412.117 333.013c-117.597 0-212.932-47.027-212.932-105.039 0-14.976 9.665-29.218 21.115-42.11h383.631c11.449 12.893 21.116 27.135 21.116 42.11 0 58.012-95.332 105.039-212.931 105.039v0zM871.18 648.013v-528.026h-718.361v528.026h718.361M871.18 684.852h-718.361c-20.345 0-36.839-16.493-36.839-36.839v-528.026c0-20.345 16.494-36.839 36.839-36.839h718.361c20.345 0 36.839 16.494 36.839 36.839v528.026c0 20.346-16.494 36.839-36.839 36.839v0zM763.281 488.377c0-10.172-8.247-18.42-18.42-18.42h-124.843c-10.173 0-18.42 8.248-18.42 18.42v0c0 10.173 8.247 18.42 18.42 18.42h124.843c10.174 0 18.42-8.247 18.42-18.42v0zM838.885 392.186c0-10.172-8.248-18.42-18.42-18.42h-200.448c-10.172 0-18.42 8.248-18.42 18.42v0c0 10.173 8.248 18.42 18.42 18.42h200.448c10.173-0 18.42-8.247 18.42-18.42v0z"  horiz-adv-x="1024" />

    
    <glyph glyph-name="back" unicode="&#58910;" d="M512.004-128c-282.77 0-512.004 229.233-512.004 511.994 0 282.77 229.234 512.006 512.004 512.006 282.765 0 511.999-229.234 511.999-512.006 0-282.762-229.234-511.994-511.999-511.994v0zM512.004 839.11c-251.367 0-455.114-203.745-455.114-455.115 0-251.33 203.745-455.105 455.114-455.105 251.363 0 455.11 203.775 455.11 455.105-0.001 251.37-203.747 455.115-455.11 455.115v0zM595.914 117.642l-264.933 264.934 1.421 1.418-1.421 1.428 264.933 264.931 40.219-40.218-226.133-226.141 226.134-226.133-40.221-40.219zM595.914 117.642z"  horiz-adv-x="1025" />

    
    <glyph glyph-name="rmb" unicode="&#58992;" d="M729.178321 767.227148 511.198751 514.549312 301.688063 767.228171 229.492788 767.228171 458.930317 501.809149 232.174873 501.809149 232.174873 450.849524 477.876832 450.849524 477.876832 343.77588 232.174873 343.77588 232.174873 292.163385 477.876832 292.163385 477.876832 34.364925 541.9051 34.364925 541.9051 292.162362 793.266965 292.162362 793.266965 343.77588 541.9051 343.77588 541.9051 450.849524 793.266965 450.849524 793.266965 501.808126 559.545876 501.808126 797.453311 767.227148Z"  horiz-adv-x="1024" />

    
    <glyph glyph-name="load" unicode="&#59120;" d="M522.694941 893.995771C496.366896 893.841252 475.286056 872.520041 475.01921 845.267173 474.761565 818.782284 474.964 792.292783 474.968601 765.805588 474.973202 738.550413 474.602838 711.288321 475.07902 684.042372 475.552902 656.974005 497.098422 636.900469 524.42714 637.135706 550.644767 637.361718 572.006255 658.145575 572.146579 684.58434 572.436429 738.326709 572.459433 792.071384 572.123575 845.811446 571.951046 873.490969 550.2537 894.157208 522.694941 893.995771M326.793348 805.923135C318.468211 820.12267 305.146611 827.184385 288.489434 827.26741 253.346266 827.255878 231.908865 790.302955 249.502304 759.087962 275.469187 713.01385 301.893849 667.19573 328.48874 621.479086 341.446878 599.20309 368.536355 592.152906 390.307315 604.595084 411.620493 616.776657 419.984738 643.556745 407.696016 665.445292 381.241449 712.561827 354.124366 759.309362 326.793348 805.923135M98.08464 571.387729C142.408693 545.59702 186.87537 520.053077 231.284538 494.407661 238.001698 490.530867 244.9696 487.502771 252.974983 488.000919 273.11266 487.846401 288.948593 499.93803 294.299318 519.54801 299.286579 537.824982 291.612454 556.297984 274.053522 566.546926 229.435019 592.593629 184.699194 618.437383 139.949568 644.258074 117.419478 657.258363 92.131212 651.285194 80.118538 630.35835 67.914931 609.0971 75.147379 584.733955 98.08464 571.387729M132.245998 335.421069C158.647656 335.4326 185.051616 335.215813 211.450973 335.497176 234.852914 335.746249 250.603733 351.910703 250.242571 374.631804 249.899811 396.236684 233.334652 412.002157 210.671139 412.02522 159.013419 412.078263 107.358001 412.082875 55.700282 411.981401 31.532309 411.93297 14.980951 396.008366 15.128177 373.294184 15.273102 351.140418 31.707139 335.552524 55.334519 335.439519 80.972445 335.314982 106.608071 335.409537 132.245998 335.421069M283.9496 235.210682C274.573181 251.49506 254.012231 257.784183 237.09051 248.146396 190.551175 221.64075 144.301689 194.613895 98.072908 167.566282 86.971191 161.069598 81.760791 150.712262 81.602064 142.204535 81.652673 111.649128 108.822664 94.246221 131.994564 107.124279 179.138905 133.320887 225.705844 160.585286 272.13016 188.052635 289.302625 198.211633 293.620471 218.414317 283.9496 235.210682M375.850008 133.557738C361.573742 137.61442 348.203834 132.104806 339.970714 117.886821 314.06364 73.152636 288.317595 28.321587 262.695772-16.576341 252.682142-34.12454 256.825157-52.258525 272.456356-61.601113 288.487824-71.181245 306.70467-65.660101 317.176077-47.602222 342.728889-3.541458 368.076966 40.639229 393.546964 84.748423 396.854935 90.477129 399.240447 96.431848 399.295656 99.674425 399.314059 117.492454 390.031957 129.528734 375.850008 133.557738M523.30063 89.255974C506.896498 89.166031 495.96041 77.344231 495.84999 59.092628 495.695864 33.744717 495.810884 8.3945 495.810884-16.955718L495.739571-16.955718C495.739571-43.071608 495.606148-69.19211 495.785579-95.308001 495.909801-113.580359 506.841288-125.381403 523.231618-125.517471 540.176344-125.655846 551.291863-113.693366 551.33557-94.775258 551.452891-43.694293 551.471294 7.388978 551.406883 58.472249 551.383879 77.2589 540.178644 89.348224 523.30063 89.255974M700.483898 115.371864C693.005307 128.194572 678.579517 131.395637 666.697965 124.248591 655.239687 117.355233 651.140379 103.623865 658.184195 91.225504 684.461631 44.9692 711.100231-1.079545 737.79404-47.096001 742.30742-54.872651 749.452452-59.060787 758.718453-58.9178 777.275757-58.779426 789.242423-39.589182 779.946518-23.030361 753.906022 23.357401 727.283525 69.419982 700.483898 115.371864M940.423835 156.560663C895.133615 182.814927 849.824993 209.032292 804.484165 235.196613 799.777552 237.913367 794.739682 239.536962 789.124413 238.157828 780.001037 235.918467 774.181032 230.12288 772.612162 221.059347 770.728137 210.185413 776.456125 202.851562 785.501286 197.634842 815.291431 180.453336 845.060871 163.239541 874.841812 146.044198 890.065841 137.255107 905.078233 128.069344 920.585211 119.812995 935.257143 112.001752 951.62447 121.847101 951.640572 137.847811 951.57156 146.286352 947.545865 152.432489 940.423835 156.560663M989.291404 391.192701C964.42181 391.28495 939.552216 391.218069 914.680322 391.218069L914.680322 391.271113C889.428862 391.271113 864.175102 391.342606 838.923642 391.241132 825.47322 391.190394 817.960123 384.90819 817.759988 373.953538 817.557553 362.821306 824.829109 356.433014 838.419855 356.403033 888.925075 356.290027 939.430295 356.269271 989.935515 356.329233 1003.296222 356.34307 1011.108371 362.802856 1011.320007 373.462308 1011.533944 384.308567 1003.206506 391.139657 989.291404 391.192701M801.340211 518.35453C846.421096 544.382782 891.478975 570.452547 936.504649 596.575356 941.367688 599.398198 944.744672 603.429509 944.627351 609.520295 944.50313 620.55336 933.44282 626.939345 923.146243 621.046896 877.632884 595.000193 832.289756 568.658291 786.999536 542.22414 779.339213 537.754642 776.482119 530.704458 781.427973 522.667203 786.263409 514.812141 793.51426 513.836601 801.340211 518.35453M679.047187 633.458171C684.229982 633.704938 687.2343 636.869102 689.640515 641.110283 694.556465 649.770224 699.665646 658.317158 704.634504 666.947118 725.085036 702.465558 745.55627 737.970161 765.917086 773.539339 771.000963 782.418373 768.942108 790.201941 761.150662 792.069998 753.476538 793.910379 750.24448 788.38001 747.097537 782.909603 724.174079 743.07157 701.227617 703.242761 678.31106 663.39781 675.447066 658.418633 672.29092 653.545542 670.015828 648.298841 666.889588 641.101057 671.685916 633.649589 679.047187 633.458171"  horiz-adv-x="1024" />

    
    <glyph glyph-name="hongbao" unicode="&#58908;" d="M854.56 896l-689.376 0c-109.024 0-133.184-30.56-133.184-146.144l0-57.216c72.224-37.6 163.328-85.44 264.96-117.792 28.32 89.216 112.928 153.952 212.896 153.952 99.84 0 184.352-64.576 212.736-153.568 102.528 33.664 192.32 84.224 265.12 124.096l0 50.56c0.032 115.552-24.16 146.112-133.152 146.112zM509.856 289.952c-118.496 0-215.136 91.008-222.304 205.824-92.032 29.152-179.008 69.792-255.552 105.44l0-604.448c0-115.552 24.16-124.768 133.184-124.768l689.344 0c109.024 0 133.184 9.216 133.184 124.8l0 610.144c-77.728-37.92-163.616-80.416-255.552-110.56-6.816-115.104-103.584-206.432-222.304-206.432zM566.048 657.056l-45.216-100.64c-3.744-8.48-6.496-14.976-8.256-19.456l-0.8 0-54.656 120.128-66.72 0 74.752-134.016-56.672 0 0-38.176 69.12 0 0-32.96-69.12 0 0-38.176 69.12 0 0-55.36 63.328 0 0 55.328 66.912 0 0 38.176-66.912 0 0 32.96 66.912 0 0 38.176-55.488 0 76.96 134.016-63.264 0z"  horiz-adv-x="1024" />

    
    <glyph glyph-name="chart" unicode="&#59061;" d="M959.904193 518.981251 658.82295 210.937432l-13.975293 19.495006-15.21861-18.152429L470.037283 402.756179 226.64595 209.097528l-11.935843 21.334911-15.21861-18.152429-85.590354 102.20066 0-254.083859 845.455581 0 0-49.732681-845.455581 0-49.732681 0 0 49.732681 0 696.257537 49.732681 0L113.901143 315.475324l29.989011 35.80753 73.554226-87.828324 243.391333 193.708793 11.935843-21.385053 15.21861 18.152429L645.941572 265.394718l285.962917 292.577568L959.904193 518.981251z"  horiz-adv-x="1024" />

    
    <glyph glyph-name="about" unicode="&#59188;" d="M512.843 779.744c-217.526 0-393.852-176.377-393.852-393.807 0-217.57 176.326-393.853 393.852-393.853 217.523 0 393.853 176.282 393.853 393.853 0 217.43-176.33 393.807-393.853 393.807zM512.843 31.298999999999978c-197.445 0-358.124 158.938-358.124 355.767 0 196.882 160.679 356.948 358.124 356.948 197.493 0 358.124-160.067 358.124-356.948 0-358.973-358.124-355.767-358.124-355.767zM554.933 195.13800000000003c-8.768 0-14.94 2.075-18.523 6.221-3.537 4.148-5.327 11.878-5.327 23.191 0 4.714 0.565 11.312 1.652 20.173 1.082 8.862 2.308 16.779 3.721 23.568l16.924 85.972c1.648 7.919 2.78 16.592 3.394 26.017 0.611 9.427 0.942 16.026 0.942 19.796 0 18.099-4.478 32.995-13.341 44.306s-21.445 16.969-37.802 16.969c-9.05 0-18.666-2.452-28.845-6.976-10.133-4.713-20.785-10.181-31.91-16.78l-4.524-26.583c3.25 1.884 7.209 3.77 11.829 5.657 4.62 2.074 9.145 3.017 13.53 3.017 8.956 0 14.989-2.263 18.144-6.599 3.205-4.337 4.762-11.877 4.762-23.002 0-6.033-0.519-12.819-1.556-20.173-0.989-7.353-2.262-15.271-3.817-23.567l-16.967-86.351c-1.508-9.05-2.639-17.157-3.298-24.32-0.709-7.165-1.037-14.14-1.037-21.117 0-17.721 4.569-32.239 13.669-43.929 9.145-11.499 21.964-17.157 38.412-17.157 10.7 0 20.078 2.075 28.185 6.033 8.107 3.959 18.949 9.803 32.524 17.534l4.523 26.585c-2.308-1.508-6.08-3.394-11.313-5.467-5.183-2.077-9.847-3.018-13.951-3.018zM539.71 600.823c-12.349 0-22.957-4.336-31.769-13.103-8.862-8.767-13.291-19.325-13.291-31.674 0-12.349 4.431-22.907 13.291-31.579 8.812-8.672 19.419-13.009 31.769-13.009 12.35 0 22.908 4.337 31.674 13.009 8.768 8.673 13.149 19.23 13.149 31.579 0 12.35-4.381 22.908-13.149 31.674-8.767 8.768-19.324 13.103-31.674 13.103z"  horiz-adv-x="1024" />

    
    <glyph glyph-name="shubao" unicode="&#58894;" d="M512.878 839.868c80.816 0 151.955-60.078 165.406-140.896l3.646-25.765 25.765-2.387c67.369-4.901 107.84-67.369 106.583-165.406v-200.975l30.668-2.387c11.061-1.258 36.7-6.158 36.7-34.314v-202.106l1.258-3.646c0-9.804-11.061-23.251-41.602-29.411l-28.155-4.901 2.387-29.411c0 0 1.258-28.155-18.351-47.763-15.962-17.093-44.116-25.765-82.076-25.765h-409.237c-35.569 0-94.39 9.804-94.39 77.172v29.411l-29.411 2.387c-6.158 0-40.47 4.901-40.47 33.056v197.204c0 4.901 1.258 19.607 9.804 29.411 6.158 6.158 14.706 9.804 28.155 9.804h32.051v204.62c-1.258 6.158-15.962 139.638 111.484 167.793l20.862 4.901 3.646 21.996c14.706 79.685 83.205 137.249 165.279 137.375M389.203 684.267h245.090l-9.804 31.925c-14.706 50.275-61.207 84.588-112.741 84.588-51.406 0-98.035-34.314-112.741-84.588l-9.804-31.925M316.933 135.266h270.731c0-35.569 29.411-63.724 64.978-63.724s64.978 29.411 64.978 64.978v0c29.411 6.158 52.665 31.925 52.665 63.724 0 35.569-29.411 64.978-64.978 64.978h-388.374c-35.569 0-64.978-29.411-64.978-64.978s29.411-64.978 64.978-64.978M512.878 872.924c-98.035 0-180.11-71.012-197.204-165.406-158.116-35.569-137.249-203.362-137.249-203.362v-167.917c-74.784-1.258-69.883-72.271-69.883-72.271v-194.817c0-61.207 69.883-66.112 69.883-66.112 0-104.194 100.422-110.228 126.191-110.228h409.237c140.896 0 132.349 109.095 132.349 109.095 75.914 14.706 67.369 66.112 67.369 66.112v200.848c0 62.466-67.369 67.369-67.369 67.369v170.305c0 135.993-68.625 192.301-137.249 198.461-14.706 94.39-96.779 167.917-196.073 167.917v0 0zM422.258 707.518c11.061 39.214 47.763 67.369 89.487 67.369 42.859 0 78.429-28.155 89.487-67.369h-178.979zM316.933 168.446c-17.219 0-31.925 14.706-31.925 31.925s14.706 31.925 31.925 31.925h388.374c17.219 0 31.925-14.706 31.925-31.925s-14.706-31.925-31.925-31.925h-20.862v-31.925c0-17.093-14.706-31.925-31.925-31.925s-31.925 14.706-31.925 31.925v31.925h-303.661zM316.933 168.446z"  horiz-adv-x="1024" />

    
    <glyph glyph-name="bankcard" unicode="&#58905;" d="M963.095273-86.69090900000003L78.731636-86.69090900000003c-39.726545 0-78.731636 37.166545-78.731636 75.054545L0 640c0 39.889455 40.866909 64.581818 78.731636 64.581818l884.363636 0c37.562182 0 60.904727-24.738909 60.904727-64.581818l0-651.636364C1024-55.83127300000001 998.958545-86.69090900000003 963.095273-86.69090900000003zM78.731636 658.036364c-15.941818 0-32.186182-9.099636-32.186182-18.036364l0-651.636364c0-11.985455 18.641455-28.509091 32.186182-28.509091l884.363636 0c11.776 0 14.359273 20.573091 14.359273 28.509091L977.454545 640c0 18.036364-6.330182 18.036364-14.359273 18.036364L78.731636 658.036364zM116.363636 495.127273l814.545455 0 0-46.545455-814.545455 0 0 46.545455ZM907.636364 146.03636400000005l-279.272727 0 0 186.181818 279.272727 0L907.636364 146.03636400000005zM674.909091 192.581818l186.181818 0 0 93.090909-186.181818 0L674.909091 192.581818z"  horiz-adv-x="1033" />

    
    <glyph glyph-name="qianbao" unicode="&#58898;" d="M1005.239893 574.3168000000001c-12.09344 12.83328-28.16 16.653227-45.226667 16.653227L106.67648 590.9700270000001c-17.099947 0-33.21344 9.496747-45.243307 22.293333-12.123307 12.86656-18.740053 32.35328-18.740053 50.4832 0 18.153387 6.616747 33.58336 18.70336 46.41664 12.06656 12.83328 28.180053 16.653227 45.28 16.653227l170.673493 0c11.77344 0 21.326507 10.143147 21.326507 22.629973 0 12.493227-9.553493 22.666667-21.326507 22.666667L106.67648 772.113067c-28.489813 0-55.286613-9.353387-75.466667-30.760107C11.086507 719.990187 0.003413 693.949867 0.003413 663.74656c0-1.640107 0.366507-3.209813 0.43648-4.84992L0.003413 658.8966399999999l0-650.103467c0-30.280107 11.08352-61.92 31.206827-83.286613 20.180053-21.399893 46.976853-36.38656 75.466667-36.38656l853.336747 0c17.066667 0 33.173333 10.30016 45.226667 23.13344S1024-54.64021300000002 1024-36.46677299999999L1024 529.53984C1024 547.69664 1017.360213 561.519787 1005.239893 574.3168000000001zM981.34656-36.506880000000024c0-6.033493-2.226773-14.94656-6.280107-19.213227-4.040107-4.299947-9.399893-9.85984-15.053227-9.85984L106.67648-65.57994699999995c-17.099947 0-33.21344 10.260053-45.28 23.113387-12.086613 12.8-18.70336 33.099947-18.70336 51.26016L42.69312 571.720107c18.429867-15.556693 40.503467-26.039893 63.98336-26.039893l853.336747 0c5.653333 0 11.013547 0.886613 15.053227-3.380053 4.013227-4.266667 6.280107-6.726827 6.280107-12.759893L981.34656-36.506880000000024zM849.040213 726.85312l4.266667 0c5.719893 0 11.06688 0.8832 15.093333-3.42016 4.02688-4.293547 6.253227-6.716587 6.253227-12.759893l0-33.79328c0-12.486827 9.546667-22.65984 21.360213-22.65984 11.77344 0 21.30688 10.136747 21.30688 22.65984l0 33.79328c0 18.1568-6.62656 31.98336-18.733227 44.779947-12.106667 12.829867-28.18688 16.660053-45.28 16.660053l-4.266667 0c-11.813547 0-21.333333-10.143147-21.333333-22.666667S837.226667 726.85312 849.040213 726.85312zM308.136533 622.78656l320.090027 208.439893c5.320107 2.7968 11.333547 3.10656 16.880213 0.956587 5.573547-2.186667 9.906773-6.62656 12.18688-12.423253l100.86656-185.64352 39.306667 17.579947-100.853333 185.673387c-6.81344 17.16992-20.200107 30.749867-36.693333 37.266773-16.50688 6.52672-35.013547 5.469867-50.74688-2.823253L289.143467 663.4001069999999 308.136533 622.78656zM844.773547 97.41994699999998L640 97.41994699999998c-14.14656 0-25.6-11.666773-25.6-26.066773 0-14.36672 11.45344-26.053547 25.6-26.053547l204.773547 0c14.14656 0 25.613227 11.686827 25.613227 26.053547C870.386773 85.78645300000005 858.920107 97.41994699999998 844.773547 97.41994699999998z"  horiz-adv-x="1024" />

    
    <glyph glyph-name="youhuiquan" unicode="&#59079;" d="M934.925289 483.514481c24.201192 16.065907 24.877597 28.350698 24.877597 49.756217 0 29.042453 0 149.262512 0 149.262512 0 41.21775-33.416064 74.633814-74.633814 74.633814L138.829905 757.167025c-41.21775 0-74.633814-33.416064-74.633814-74.633814 0 0 0-137.40137 0-149.262512 0-22.295795 1.552356-37.167504 24.877597-49.756217 33.988092-15.827477 74.633814-47.805796 74.633814-99.516528 0-67.106374-42.182728-88.938612-73.166393-99.402941-21.807678-13.647835-26.346041-36.122709-26.346041-49.860595 0-11.846816 0-149.267629 0-149.267629 0-41.222867 33.416064-74.633814 74.633814-74.633814l746.339166 0c41.21775 0 74.633814 33.410947 74.633814 74.633814 0 0 0 99.507318 0 149.267629 0 27.171849-6.239098 35.783994-24.877597 49.756217-54.338582 28.013007-74.633814 52.949956-74.633814 99.512435C860.291474 430.564525 879.298364 453.735248 934.925289 483.514481zM910.047692 243.869472l0-133.530203c0-27.474748-22.275329-49.756217-49.756217-49.756217L163.707502 60.583053c-27.479865 0-49.756217 22.280446-49.756217 49.756217L113.951285 243.869472c57.846476 20.564361 99.512435 75.231425 99.512435 140.127458 0 64.902172-41.665958 119.568213-99.512435 140.127458L113.951285 657.655613c0 27.479865 22.275329 49.756217 49.756217 49.756217l696.583972 0c27.479865 0 49.756217-22.275329 49.756217-49.756217l0-133.530203c-57.84136-20.559245-99.512435-75.226309-99.512435-140.127458C810.535257 319.100898 852.206332 264.433834 910.047692 243.869472zM648.828318 433.758264l-93.919043 0 101.94995 109.537765c4.408403 4.816702 4.408403 12.632715 0 17.454534l-15.956414 17.454534c-4.408403 4.821819-11.54801 4.821819-15.956414 0l-113.065102-121.474632L398.770146 578.245006c-4.373611 4.78191-11.464099 4.78191-15.832594 0l-15.832594-17.320481c-4.373611-4.78191-4.373611-12.533454 0-17.315364l102.253872-109.850897-94.188172 0c-6.871501 0-12.43931-5.572926-12.43931-12.43931l0-24.882714c0-6.871501 5.567809-12.43931 12.43931-12.43931l111.950721 0 0-49.756217L375.170658 334.240713c-6.871501 0-12.43931-5.567809-12.43931-12.43931l0-24.877597c0-6.866385 5.567809-12.43931 12.43931-12.43931l111.950721 0 0-87.073124c0-6.866385 5.567809-12.43931 12.43931-12.43931l24.877597 0c6.871501 0 12.43931 5.572926 12.43931 12.43931l0 87.073124 111.950721 0c6.871501 0 12.43931 5.572926 12.43931 12.43931l0 24.877597c0 6.871501-5.567809 12.43931-12.43931 12.43931L536.877597 334.240713l0 49.756217 111.950721 0c6.871501 0 12.43931 5.567809 12.43931 12.43931l0 24.882714C661.267629 428.186362 655.69982 433.758264 648.828318 433.758264z"  horiz-adv-x="1024" />

    
    <glyph glyph-name="clock" unicode="&#58884;" d="M512-127.04c-109.376 0-210.112 35.2-292.992 93.824-7.744 7.68-14.016 9.408-25.472 19.2-46.016 37.056-85.888 81.344-116.864 132.032-5.376 5.184-9.152 11.712-11.52 19.008-40.512 73.216-63.616 157.248-63.616 246.784 0 282.112 228.48 510.784 510.528 510.784 281.856 0 510.528-228.672 510.528-510.784S793.856-127.04 512-127.04zM511.232 849.92C264.064 849.856 41.728 636.928 45.76 383.808c1.152-72.256 26.624-170.112 58.88-229.44 3.264-3.968 12.096-16.128 14.016-20.992 27.008-45.76 74.624-91.904 116.352-124.288 3.136-1.92 0 0 2.624-2.688 69.12-50.88 181.12-88.832 273.6-88.832 254.4-0.064 460.352 191.808 463.488 466.88C977.728 649.344 763.648 849.984 511.232 849.92zM537.6 372.16C537.6 359.168 526.144 348.672 512 348.672l0 0c-14.144 0-25.6 10.496-25.6 23.488L486.4 695.168c0 12.992 11.456 23.488 25.6 23.488l0 0c14.144 0 25.536-10.496 25.536-23.488L537.536 372.16zM726.784 191.68c8-8.064 6.4-22.592-3.648-32.576l0 0c-9.92-9.984-24.576-11.712-32.576-3.648L491.52 354.624c-8 8-6.4 22.592 3.648 32.576l0 0c9.984 9.984 24.576 11.712 32.576 3.648L726.784 191.68z"  horiz-adv-x="1024" />

    
    <glyph glyph-name="tel" unicode="&#58897;" d="M888.344 211.50400000000002c-30.8304 21.6602-63.1213 41.6966-90.9118 56.4155-44.9989 23.8282-64.2948 26.5815-74.8937 26.5815-21.4019 0-39.9476-11.2058-55.1541-33.3139-10.0071-14.5545-17.548-32.0375-24.8307-48.9431-4.9093-11.3888-12.7597-29.5919-18.2645-36.5302-10.2377 2.42575-34.9251 13.018-76.7643 41.6147-39.0173 26.6562-81.2757 61.1381-113.148 92.2767-31.0363 31.9821-65.3912 74.3892-91.9607 113.534-28.507 42-39.0517 66.7789-41.4726 77.0316 6.92204 5.53546 25.0559 13.4015 36.4212 18.3404 16.8376 7.31097 34.2531 14.87 48.7619 24.9036 22.0323 15.2541 33.2085 33.8756 33.2085 55.3402 0 10.632-2.74606 30.0025-26.4996 75.1568-14.6695 27.8868-34.6312 60.2826-56.2222 91.2207-16.0681 23.0468-40.5948 56.1012-66.1588 82.6923C241.557 877.9017 219.565 891.30985 199.154 891.30985c-49.724 0-108.246-73.1272-124.995-95.5442C52.694 767.052 2.76231 692.693 2.76231 622.6279999999999c0-65.4785 43.4673-150.001 79.9403-209.377 48.8366-79.5218 116.394-165.195 190.227-241.231l24.057-24.1467 0.274545-0.276954c75.7841-74.0803 161.155-141.879 240.401-190.881 59.1748-36.6 143.416-80.2112 208.657-80.2112 69.8194 0 143.927 50.0979 172.56 71.6437 22.3369 16.8002 95.2064 75.5283 95.2064 125.42 0 20.4904-13.3678 42.5509-43.3306 71.5564-26.499 25.6399-59.4451 50.2508-82.4106 66.3786Zm46.6336-167.983c-13.9476-16.1488-33.394-33.7432-54.7555-49.547-48.7432-36.0359-98.7894-57.5516-133.902-57.5516-39.4183 0-104.047 25.9891-177.324 71.3095-75.5867 46.7305-157.225 111.589-229.922 182.646l-23.5248 23.5958c-70.8092 72.9514-135.438 154.869-182.021 230.72-45.1603 73.5354-71.0507 138.388-71.0507 177.939 0 35.2339 21.429 85.4571 57.3511 134.356 15.7418 21.4362 33.2718 40.9548 49.3688 54.9374 15.1048 13.1258 24.9626 17.9267 28.9429 19.1538 10.8548-5.07548 44.8153-35.211 93.1823-105.551 18.9581-27.5894 36.3977-56.118 49.075-80.3184 15.92-30.3993 18.6721-43.0609 19.1267-45.9562-0.764031-1.13611-3.53417-4.44511-11.9337-9.47302-9.41642-5.63179-21.8848-11.0456-33.9431-16.2807-14.9802-6.50299-30.4619-13.2185-42.9122-21.4874-20.3579-13.54-30.48-30.1416-30.0711-49.3814 0.189051-9.20931 0.790522-37.2069 52.3894-113.229 28.4955-41.9663 65.4333-87.5336 98.8255-121.907l0.532835-0.52561c34.2345-33.5132 79.6657-70.581 121.48-99.1741 75.7661-51.7717 103.67-52.3647 112.835-52.5634 0.366663-0.012041 0.72309-0.012041 1.06085-0.012042 18.8383 0.006021 35.1075 10.2708 48.3597 30.4842 8.14304 12.4455 14.7893 27.8489 21.2122 42.7508 5.21877 12.1071 10.6091 24.6254 16.2229 34.0695 5.02249 8.43685 8.31523 11.1998 9.44532 11.9813 2.87851-0.459382 15.5058-3.21748 45.7961-19.1959 24.1197-12.7296 52.552-30.2156 80.0486-49.2526 70.0885-48.5211 100.121-82.6008 105.19-93.5032-1.22221-3.98633-6.00508-13.8766-19.0845-29.0338Zm0 0M505.279 534.578c2.09341-11.9457 13.4413-19.928 25.3401-17.8178 32.8822 5.82024 65.8331-0.814003 92.7849-18.6661 26.5863-17.5992 44.1621-44.082 49.5181-74.5493 1.87546-10.6657 11.1076-18.1555 21.5277-18.1555 1.26195 0 2.54677 0.108373 3.83099 0.337763 11.9048 2.10545 19.8473 13.4943 17.7485 25.4394-7.46571 42.4817-31.7979 79.269-68.5165 103.578-36.3291 24.0739-80.5423 33.049-124.487 25.266-11.9048-2.10364-19.8461-13.4925-17.7467-25.4322Zm0 0M530.619 660.716c63.0684 11.1648 126.339-1.59369 178.162-35.9221 51.4399-34.0689 85.4968-85.4053 95.8886-144.552 1.86944-10.6549 11.1076-18.1429 21.5277-18.1429 1.26195 0 2.54015 0.107771 3.82557 0.331141 11.8982 2.09883 19.8522 13.4943 17.7485 25.4394-12.4954 71.1422-53.2973 132.796-114.886 173.574-61.1995 40.549-135.732 55.6418-209.858 42.5335-11.9054-2.10425-19.8467-13.5057-17.7473-25.4442 2.09642-11.9385 13.4407-19.9226 25.3395-17.8172Zm0 0M1023.66 504.242c-19.8413 112.931-84.6491 210.814-182.491 275.621C743.711 844.4065 624.987 868.4407 506.873 847.5379c-11.9066-2.10485-19.8479-13.4943-17.7497-25.4334 2.09401-11.9445 13.4419-19.922 25.337-17.8172 107.057 18.9472 214.523-2.75208 302.595-61.0851 87.7112-58.079 145.767-145.658 163.5-246.582 1.86944-10.6537 11.1137-18.1495 21.5325-18.1495 1.26315 0 2.54135 0.108975 3.82557 0.344385 11.9054 2.09823 19.854 13.487 17.7491 25.4274Zm0 0"  horiz-adv-x="1024" />

    
    <glyph glyph-name="touzi" unicode="&#59215;" d="M513.115468 896C229.786492 896 0 666.213508 0 382.88453200000004c0-60.235294 11.154684-122.701525 33.464052-180.705883l8.923748-15.616557c4.461874-8.923747 11.154684-11.154684 20.078431-11.154685h2.230937c4.461874 0 11.154684 2.230937 15.616557 4.461874l176.244009 149.472767 136.087146-122.701525c8.923747-8.923747 22.309368-6.69281 31.233116 0l336.871459 323.485839v-178.474946c0-13.385621 8.923747-22.309368 22.309369-22.309368s22.309368 8.923747 22.309368 22.309368V585.899782c0 13.385621-8.923747 22.309368-22.309368 22.309368H546.579521c-13.385621 0-22.309368-8.923747-22.309368-22.309368s8.923747-22.309368 22.309368-22.309368h178.474945L403.799564 255.721133l-133.856209 122.701525c-8.923747 6.69281-20.078431 6.69281-29.002179 0l-169.551198-145.010893C53.542484 282.49237500000004 44.618736 331.572985 44.618736 382.88453200000004 44.618736 641.6732030000001 254.326797 851.381264 513.115468 851.381264s468.496732-209.708061 468.496732-468.496732-209.708061-468.496732-468.496732-468.496732c-149.472767 0-285.559913 69.159041-374.797385 187.398692-6.69281 8.923747-22.309368 11.154684-31.233116 4.461874-8.923747-6.69281-11.154684-22.309368-4.461873-31.233115C200.784314-54.37908500000003 350.257081-128 513.115468-128c283.328976 0 513.115468 229.786492 513.115469 513.115468S794.213508 896 513.115468 896z"  horiz-adv-x="1026" />

    
    <glyph glyph-name="note" unicode="&#58885;" d="M756.547-128h-489.768c-76.126 0-138.779 61.979-138.779 138.779v653.474c0 75.453 60.632 136.758 136.084 138.779v37.726c0 30.316 25.6 55.242 57.263 55.242s57.263-24.926 57.263-55.242v-37.726h265.432v37.726c0 30.316 25.6 55.242 57.263 55.242s57.263-24.926 57.263-55.242v-38.4c75.453-1.347 136.084-63.326 136.084-138.779v-653.474c1.347-76.126-61.305-138.105-138.105-138.105zM345.6 840.758c0 12.126-10.779 22.232-24.253 22.232s-24.253-10.105-24.253-22.232v-87.579c0-12.126 10.779-22.232 24.253-22.232s24.253 10.105 24.253 22.232v87.579zM726.232 840.758c0 12.126-10.779 22.232-24.253 22.232s-24.253-10.105-24.253-22.232v-87.579c0-12.126 10.779-22.232 24.253-22.232s24.253 10.105 24.253 22.232v87.579zM862.316 664.253c0 57.263-45.811 103.747-103.074 105.095v-16.168c0-30.316-25.6-55.242-57.263-55.242s-57.263 24.926-57.263 55.242v16.168h-265.432v-16.168c0-30.316-25.6-55.242-57.263-55.242s-57.263 24.926-57.263 55.242v16.168c-57.937-1.347-103.747-47.832-103.747-105.095v-653.474c0-57.937 47.158-105.768 105.768-105.768h489.768c58.611 0 105.768 47.158 105.768 105.768v653.474zM721.516 157.642h-419.705c-3.368 0-5.389 2.695-5.389 5.389 0 3.368 2.695 5.389 5.389 5.389h419.705c3.368 0 5.389-2.695 5.389-5.389s-2.021-5.389-5.389-5.389zM721.516 325.389h-419.705c-3.368 0-5.389 2.695-5.389 5.389 0 3.368 2.695 5.389 5.389 5.389h419.705c3.368 0 5.389-2.695 5.389-5.389 0-3.368-2.021-5.389-5.389-5.389zM721.516 490.442h-419.705c-3.368 0-5.389 2.695-5.389 5.389 0 3.368 2.695 5.389 5.389 5.389h419.705c3.368 0 5.389-2.695 5.389-5.389 0-3.368-2.021-5.389-5.389-5.389z"  horiz-adv-x="1024" />

    
    <glyph glyph-name="hand" unicode="&#58881;" d="M771.275 801.415c6.79 0 13.581 0 20.371 0 44.675-7.103 71.418-31.697 84.397-61.115 38.506-87.269-49.952-175.037-136.785-136.784-44.318 19.526-78.8 85.312-49.475 142.604 12.851 25.104 41.71 48.755 81.49 55.295zM715.979 696.646c1.43-77.062 112.682-81.574 129.507-17.46 13.801 52.579-30.691 88.686-72.757 82.943-38.185-5.215-57.363-32.411-56.751-65.482zM509.348 650.082c61.706 6.928 116.886-40.494 113.501-107.679-1.243-24.639-13.193-50.273-27.649-65.481-61.857-65.083-178.981-20.902-178.981 71.303 0.001 58.125 39.073 95.791 93.13 101.858zM454.054 551.132c-1.345-35.495 24.655-66.844 62.571-68.391 94.225-3.843 87.634 143.36-7.276 129.507-33.106-4.831-54.030-27.679-55.297-61.116zM714.526 500.203c71.822 8.063 126.521-52.566 112.045-123.686-21.085-103.594-173.2-105.889-200.809-5.821-15.575 56.447 19.646 103.97 53.841 120.777 8.91 4.381 22.769 7.365 34.924 8.732zM662.138 417.26c-25.776-99.222 129.072-113.93 129.507-18.916 0.205 44.686-34.9 71.229-77.121 64.025-31.226-5.324-46.491-22.412-52.387-45.108zM630.125 210.631c64.25 14.78 145.642 37.883 218.272 56.751 22.713 5.901 53.394 20.755 77.121 14.55 39.015-10.198 45.185-75.377 23.281-109.135-12.33-19.008-56.781-44.21-78.576-58.204-29.695-19.068-56.834-33.319-85.852-49.476-62.556-34.823-118.062-69.253-187.712-84.396-48.829-10.617-104.242 6.895-148.425 18.916-80.164 21.812-154.483 51.35-253.194 52.384-15.357 0.161-56.195 0-75.668 0-25.225 0-57.098-3.459-58.204 17.462-1.226 23.167 26.208 20.371 55.297 20.371 28.46 0 57.069 0.582 75.668 0 96.1-3.015 169.809-31.225 248.829-52.384 41.23-11.043 94.15-27.328 138.238-21.827 37.677 4.7 75.327 24.645 106.225 39.287 66.826 31.669 124.362 64.577 186.256 104.769 26.587 17.266 69.151 45.727 42.199 85.852-82.956-21.049-177.065-46.572-266.289-69.847-29.335-7.65-62.076-21.827-90.22-21.827-17.204 0-31.31 8.991-48.020 14.551-31.801 10.581-62.453 18.006-96.039 29.103-19.436 6.42-32.433 18.419-23.283 33.468 10.132 16.661 69.63-8.551 84.397-13.094 13.957-4.295 30.067-10.735 42.199-14.55 14.377-4.523 29.931-12.58 43.655-11.643 18.459 1.264 38.189 18.972 33.47 45.108-4.33 23.983-39.666 37.71-55.297 46.564-46.732 26.473-84.21 47.648-129.506 74.212-43.023 25.229-93.711 65.378-165.887 45.109-39.479-11.087-95.027-44.226-129.506-65.481-11.084-6.832-22.732-25.558-37.833-23.281-7.209 1.086-13.87 10.364-14.551 16.006-2.055 17.017 22.303 25.684 37.833 36.375 15.269 10.512 32.303 20.815 45.108 27.648 42.131 22.48 72.389 47.056 116.412 50.931 18.993 1.673 54.654 2.109 74.212-2.912 24.452-6.276 48.229-25.152 72.757-39.289 48.121-27.737 91.743-52.886 141.147-81.487 42.779-24.764 91.5-40.739 81.486-110.591z"  horiz-adv-x="1024" />

    
    <glyph glyph-name="home" unicode="&#58883;" d="M1009.302 375.645l-501.053 468.483-501.053-467.107c-9.802-9.138-10.349-24.507-1.188-34.299 9.151-9.785 24.538-10.338 34.333-1.179l467.871 436.154 467.892-437.482c4.694-4.386 10.653-6.554 16.601-6.554 6.475 0 12.953 2.572 17.731 7.69 9.169 9.785 8.665 25.139-1.136 34.292v0zM1009.302 375.645zM856.405 366.022c-13.411 0-24.29-10.873-24.29-24.267v-372.095h-194.331v258.848h-259.104v-258.848h-194.323v372.095c0 13.394-10.868 24.267-24.289 24.267-13.429 0-24.295-10.873-24.295-24.267v-420.627h291.493v258.847h161.94v-258.847h291.486v420.627c0.001 13.394-10.881 24.267-24.286 24.267v0zM856.405 366.022zM686.37 713.847h145.744v-129.421c0-13.414 10.881-24.272 24.29-24.272 13.407 0 24.287 10.858 24.287 24.272v177.953h-194.322c-13.414 0-24.295-10.852-24.295-24.267-0.001-13.41 10.881-24.267 24.295-24.267v0zM686.37 713.847z"  horiz-adv-x="1024" />

    
    <glyph glyph-name="weibo" unicode="&#58886;" d="M479.845411-123.05314c-140.985507 0-291.864734 37.101449-390.801933 138.512077-89.043478 93.990338-111.304348 234.975845-51.942029 356.173913 66.782609 138.512077 207.768116 259.710145 356.173913 311.652174 27.207729 9.89372 51.942029 14.84058 74.202899 17.31401 24.7343 2.47343 42.048309 0 59.362319-4.94686 14.84058-4.94686 27.207729-12.36715 39.574879-22.26087s19.78744-22.26087 24.734299-37.101449c4.94686-12.36715 7.42029-24.7343 9.89372-34.628019 2.47343-9.89372 2.47343-22.26087 2.47343-32.15459v-4.94686c0-4.94686-2.47343-9.89372-4.94686-17.314009 0-4.94686-2.47343-7.42029-2.47343-9.89372 2.47343 0 4.94686 2.47343 7.42029 2.47343l14.84058 7.42029c12.36715 4.94686 29.681159 9.89372 46.995169 14.84058 17.31401 4.94686 37.101449 9.89372 56.888889 12.367149 22.26087 2.47343 44.521739 2.47343 66.782609 0 24.7343-4.94686 44.521739-14.84058 59.362318-29.681159 9.89372-9.89372 17.31401-19.78744 22.26087-29.68116 4.94686-9.89372 7.42029-19.78744 9.89372-29.681159 2.47343-9.89372 2.47343-19.78744 0-29.681159 0-9.89372-2.47343-17.31401-4.94686-24.7343l-7.42029-22.260869c-2.47343-4.94686-4.94686-9.89372-4.94686-12.36715h2.47343c12.36715-2.47343 24.7343-4.94686 42.048309-12.36715 14.84058-7.42029 32.154589-17.31401 49.468599-32.154589 17.31401-14.84058 32.154589-32.154589 42.048309-51.942029 12.36715-19.78744 17.31401-46.995169 17.31401-79.149759 0-29.681159-9.89372-61.835749-24.734299-96.463768-27.207729-54.415459-71.729469-103.884058-133.565218-143.458937-61.835749-39.574879-128.618357-66.782609-200.347826-81.623189-51.942029-14.84058-113.777778-22.26087-178.086956-22.260869z m7.420289 776.657005h-14.840579c-17.31401-2.47343-39.574879-7.42029-61.835749-14.84058-138.512077-46.995169-267.130435-160.772947-328.966184-286.917874-49.468599-101.410628-32.154589-220.135266 42.04831-299.285025 118.724638-126.144928 348.753623-143.458937 524.367149-106.357487 64.309179 14.84058 128.618357 39.574879 183.033817 74.202898s93.990338 76.676329 116.251207 123.671498c12.36715 27.207729 19.78744 51.942029 19.78744 76.676328 0 22.26087-2.47343 39.574879-9.89372 51.942029-7.42029 14.84058-19.78744 27.207729-32.154589 37.101449-12.36715 12.36715-24.7343 19.78744-37.101449 24.7343-12.36715 4.94686-22.26087 7.42029-29.68116 9.89372-19.78744 4.94686-34.628019 9.89372-42.048309 22.260869-9.89372 12.36715-9.89372 29.681159-2.47343 42.04831l4.94686 9.893719c0 2.47343 2.47343 4.94686 4.94686 9.89372s2.47343 7.42029 4.94686 12.36715c0 4.94686 2.47343 9.89372 2.47343 17.31401v17.314009c0 4.94686-2.47343 12.36715-4.94686 17.31401-2.47343 4.94686-7.42029 12.36715-12.36715 17.31401-7.42029 7.42029-19.78744 14.84058-34.628019 17.314009-17.31401 2.47343-34.628019 2.47343-49.468599 0-17.31401-2.47343-37.101449-7.42029-51.942029-9.89372-17.31401-4.94686-29.681159-9.89372-39.574879-12.367149l-19.78744-7.42029c-9.89372-2.47343-17.31401-4.94686-24.7343-4.94686-9.89372-2.47343-19.78744 0-27.207729 2.47343-4.94686 2.47343-9.89372 4.94686-12.36715 7.42029-4.94686 4.94686-12.36715 14.84058-12.36715 29.681159 0 4.94686 0 9.89372 2.47343 12.36715 0 4.94686 2.47343 9.89372 2.47343 19.787439 2.47343 4.94686 2.47343 9.89372 2.47343 14.84058 0 7.42029 0 14.84058-2.47343 22.26087 0 7.42029-2.47343 14.84058-7.42029 24.734299-2.47343 7.42029-7.42029 12.36715-12.367149 17.31401-4.94686 4.94686-14.84058 9.89372-22.26087 12.36715 0-4.94686-7.42029-2.47343-17.31401-2.47343zM462.531401-38.956522c-175.613527 0-316.599034 101.410628-316.599034 227.555556s143.458937 227.555556 316.599034 227.555555 316.599034-101.410628 316.599034-227.555555-140.985507-227.555556-316.599034-227.555556z m0 403.169082c-148.405797 0-267.130435-79.149758-267.130435-178.086956s121.198068-178.086957 267.130435-178.086957 267.130435 79.149758 267.130435 178.086957-118.724638 178.086957-267.130435 178.086956zM462.531401 102.028986c-46.995169 0-84.096618 37.101449-84.096618 84.096618s37.101449 84.096618 84.096618 84.096618 84.096618-37.101449 84.096618-84.096618-37.101449-84.096618-84.096618-84.096618z m0 118.724637c-19.78744 0-34.628019-14.84058-34.628019-34.628019s14.84058-34.628019 34.628019-34.628019 34.628019 14.84058 34.628019 34.628019-14.84058 34.628019-34.628019 34.628019zM853.333333 618.975845c-19.78744 29.681159-49.468599 46.995169-84.096618 54.415459-34.628019 4.94686-69.256039-2.47343-96.463768-22.260869l-27.20773 39.574879c81.623188 56.888889 192.927536 37.101449 249.816426-44.521739l-42.04831-27.20773zM974.531401 725.333333c-86.570048 123.671498-254.763285 153.352657-378.434783 66.782609l-27.207729 39.574879c145.932367 101.410628 346.280193 66.782609 447.690821-79.149758l-42.048309-27.20773z"  horiz-adv-x="1024" />

    
    <glyph glyph-name="ask" unicode="&#59202;" d="M552.783 136.92499999999995H451.707V185.04999999999995c-3.217 89.814 38.507 165.218 125.138 226.213 99.398 67.395 144.408 139.582 134.79 216.595-12.836 93.031-70.612 144.408-173.297 154.026-131.606 6.435-210.194-59.386-235.865-197.325l-101.075 33.68C243.053 794.686 358.573 879.743 547.957 873.342c170.079-9.618 261.536-93.1 274.371-250.31 6.435-99.5-51.342-190.958-173.296-274.371-67.395-44.942-99.501-101.076-96.284-168.47l0.035-43.265z m9.618-240.657V16.613000000000056H437.263v-120.345h125.138z"  horiz-adv-x="1024" />

    
    <glyph glyph-name="dun" unicode="&#58917;" d="M517.816-112.031l-20.987 8.192c-327.081 126.474-364.918 295.9-364.918 412.334v441.856l60.042-2.089c7.214-0.246 14.536-0.374 21.755-0.374 180.915 0 260.859 80.466 261.647 81.28l42.46 46.618 42.501-46.674c5.888-5.868 85.079-81.219 261.504-81.219 8.064 0 15.191 0.118 21.77 0.358l60.109 2.094v-441.856c0-116.413-37.837-285.824-365-412.37l-20.884-8.151zM175.452 705.27v-396.774c0-103.619 34.949-254.899 337.142-371.748l5.212-2.033 5.12 2.002c302.285 116.915 337.234 268.175 337.234 371.779v396.774l-15.012-0.522c-7.081-0.261-14.725-0.389-23.332-0.389-197.714 0-289.024 90.639-292.813 94.5l-0.563 0.599-10.634 11.674-10.604-11.638c-1.050-1.132-90.993-95.14-293.494-95.14-7.711 0-15.539 0.133-23.255 0.399l-15.002 0.517zM494.249 143.355l-217.58 192.916 28.887 32.579 174.362-154.593c92.559 179.82 248.627 310.441 255.529 316.16l27.796-33.516c-1.7-1.408-170.767-143.048-256.65-327.107l-12.344-26.44z"  horiz-adv-x="1024" />

    
    <glyph glyph-name="zan" unicode="&#58889;" d="M884.875894 472.856747L646.970506 472.856747c92.185562 340.464205-63.516616 357.853247-63.516616 357.853247-65.993017 0-52.312436-52.182476-57.3031-60.881602 0-166.502152-176.849824-296.971645-176.849824-296.971645l0-472.171899c0-46.607504 63.516616-63.393819 88.433098-63.393819l357.452111 0c33.641191 0 61.036122 88.224344 61.036122 88.224344 88.434122 300.70569 88.434122 390.177444 88.434122 390.177444C944.657442 477.820805 884.875894 472.856747 884.875894 472.856747L884.875894 472.856747 884.875894 472.856747zM884.875894 472.856747M251.671415 472.700181L109.214912 472.700181c-29.420053 0-29.873378-28.89612-29.873378-28.89612l29.420053-476.202703c0-30.309306 30.361495-30.309306 30.361495-30.309306L262.420223-62.70794799999999c25.686009 0 25.458835 20.049638 25.458835 20.049638L287.879058 436.588729C287.879058 473.162716 251.671415 472.700181 251.671415 472.700181L251.671415 472.700181 251.671415 472.700181zM251.671415 472.700181"  horiz-adv-x="1024" />

    
    <glyph glyph-name="jiankong" unicode="&#58888;" d="M509.20985-114.855328c239.91368 0 434.403012 194.485683 434.403012 434.407878 0 239.914896-194.489332 434.389633-434.403012 434.389632-239.922194 0-434.412743-194.474737-434.412743-434.389632-0.001216-239.920978 194.490549-434.407878 434.412743-434.407878z m0 737.209697c167.237886 0 302.816415-135.561501 302.816415-302.801819 0-167.247617-135.579746-302.821281-302.816415-302.821281-167.247617 0-302.82493 135.57488-302.82493 302.821281 0 167.240319 135.577313 302.80182 302.82493 302.801819zM509.20985 64.982323c140.592163 0 254.555631 113.969549 254.55563 254.555631 0 140.583649-113.962252 254.560496-254.55563 254.560496-140.584865 0-254.562929-113.976847-254.562929-254.560496 0-140.586081 113.978064-254.555631 254.562929-254.555631z m0 457.467916c112.072104 0 202.906204-90.841397 202.906204-202.912285 0-112.061158-90.836532-202.898906-202.906204-202.898906-112.067239 0-202.914718 90.838965-202.914718 202.898906 0 112.072104 90.847479 202.912285 202.914718 202.912285zM617.948046 319.545252c0.006082-0.619102 0.083925-1.218744 0.083925-1.847577 0-53.933659-41.350922-98.15994-94.074351-102.826925v-49.804283c82.063281 4.725368 147.322011 71.686933 149.231619 154.478785h-55.241193zM50.507378 818.818991c1.233339-17.831118 109.139579-119.283612 163.557329-119.283612S387.458343 790.537329 509.201335 790.537329c115.309924 0 252.400328-91.00195 311.125036-91.00195 58.718626 0 153.713725 99.60735 153.713725 119.283612V881.536847H792.037411l0.159337-11.070862-563.21642-0.609372-0.15812 11.68145H50.508594c-0.001216 0-1.234556-44.883089-0.001216-62.719072z"  horiz-adv-x="1024" />

    
    <glyph glyph-name="close" unicode="&#59501;" d="M481.835 384l-326.251 326.251c-3.705 3.832-5.989 9.060-5.989 14.821 0 11.782 9.551 21.333 21.333 21.333 5.761 0 10.988-2.283 14.827-5.994l326.245-326.245 326.251 326.251c3.832 3.705 9.060 5.989 14.821 5.989 11.782 0 21.333-9.551 21.333-21.333 0-5.761-2.283-10.988-5.994-14.827l-326.245-326.245 326.251-326.251c3.705-3.832 5.989-9.060 5.989-14.821 0-11.782-9.551-21.333-21.333-21.333-5.761 0-10.988 2.283-14.827 5.994l-326.245 326.245-326.251-326.251c-3.885-4.018-9.323-6.513-15.345-6.513-11.782 0-21.333 9.551-21.333 21.333 0 6.021 2.495 11.46 6.507 15.339l326.257 326.256z"  horiz-adv-x="1024" />

    
    <glyph glyph-name="share" unicode="&#59502;" d="M763.84 0c-47.128 0-85.333 38.205-85.333 85.333s38.205 85.333 85.333 85.333c47.128 0 85.333-38.205 85.333-85.333 0-47.128-38.205-85.333-85.333-85.333M329.92 337.152c-14.895-26.231-42.641-43.638-74.453-43.638-47.128 0-85.333 38.205-85.333 85.333 0 16.097 4.457 31.152 12.204 44 14.935 24.769 42.098 41.333 73.13 41.333 47.128 0 85.333-38.205 85.333-85.333 0-15.317-4.035-29.691-11.101-42.117M763.84 768c47.128 0 85.333-38.205 85.333-85.333s-38.205-85.333-85.333-85.333c-47.128 0-85.333 38.205-85.333 85.333 0 47.128 38.205 85.333 85.333 85.333M763.84 213.333c-0.021 0-0.047 0-0.072 0-39.16 0-74.203-17.626-97.628-45.378l-289.885 167.063c4.932 13.101 7.787 28.245 7.787 44.055 0 0.105 0 0.209 0 0.314 0 0.072 0 0.177 0 0.281 0 15.81-2.855 30.953-8.077 44.942l295.544 169.566c23.265-24.363 56.001-39.509 92.275-39.509 0.020 0 0.039 0 0.059 0 70.689 0 127.997 57.308 127.997 128 0 70.692-57.308 128-128 128-70.692 0-128-57.308-128-128 0-18.965 4.224-36.907 11.627-53.099l-292.288-168.747c-23.653 28.833-59.285 47.084-99.18 47.084-70.692 0-128-57.308-128-128 0-0.188 0-0.376 0.001-0.564-0.001-0.123-0.001-0.304-0.001-0.484 0-70.692 57.308-128 128-128 39.895 0 75.526 18.251 99.001 46.86l289.373-166.752c-5.397-13.568-8.529-29.29-8.533-45.743 0-70.582 57.308-127.889 128-127.889 70.692 0 128 57.308 128 128 0 70.692-57.308 128-128 128z"  horiz-adv-x="1024" />

    
    <glyph glyph-name="dianpu" unicode="&#58935;" d="M876.8 275.2c-51.2 0-96 25.6-121.6 70.4-25.6-38.4-70.4-70.4-121.6-70.4S537.6 300.8 512 345.6c-25.6-44.8-70.4-70.4-121.6-70.4-51.2 0-96 25.6-121.6 70.4-25.6-44.8-70.4-70.4-121.6-70.4C64 275.2 0 339.2 0 422.4v6.4l89.6 281.6c0 44.8 38.4 83.2 89.6 83.2h665.6c44.8 0 83.2-38.4 89.6-83.2L1024 428.8v-6.4c0-83.2-64-147.2-147.2-147.2z m-96 147.2c0-57.6 44.8-102.4 102.4-102.4 57.6 0 96 44.8 102.4 102.4L889.6 704v6.4c0 25.6-19.2 44.8-44.8 44.8H179.2c-25.6 0-44.8-19.2-44.8-44.8V704L44.8 422.4c0-57.6 44.8-102.4 102.4-102.4 57.6 0 102.4 44.8 102.4 102.4-6.4 12.8 6.4 25.6 19.2 25.6 12.8 0 19.2-6.4 19.2-19.2 6.4-57.6 38.4-108.8 102.4-108.8 57.6 0 102.4 44.8 102.4 102.4-6.4 12.8 6.4 25.6 19.2 25.6s25.6-12.8 25.6-25.6c0-57.6 44.8-102.4 96-102.4 57.6 0 102.4 44.8 102.4 102.4 0 12.8 12.8 25.6 25.6 25.6s19.2-12.8 19.2-25.6zM819.2-128H204.8c-57.6 0-102.4 57.6-102.4 128V307.2h44.8V0c0-44.8 25.6-83.2 57.6-83.2h614.4c32 0 57.6 38.4 57.6 83.2V307.2h44.8V0c0-70.4-44.8-128-102.4-128z"  horiz-adv-x="1024" />

    
    <glyph glyph-name="xieyi" unicode="&#58988;" d="M503.296-124.416H187.392c-72.192 0-131.072 62.976-131.072 139.776V752.64c0 77.312 58.88 139.776 131.072 139.776H796.16c72.192 0 131.584-62.464 131.584-139.776v-393.216c0-11.264-9.216-20.48-20.48-20.48s-20.48 9.216-20.48 20.48V752.64c0 54.272-40.448 98.816-90.624 98.816H187.392c-49.664 0-90.112-44.032-90.112-98.816v-737.28c0-54.272 40.448-98.816 90.624-98.816h315.392c11.264 0 20.48-9.216 20.48-20.48s-9.216-20.48-20.48-20.48zM497.152 312.32H220.16c-13.312 0-24.064 10.752-24.064 24.064s10.752 24.064 24.064 24.064h276.992c13.312 0 24.064-10.752 24.064-24.064 0-13.824-10.752-24.064-24.064-24.064zM497.152 140.8H220.16c-13.312 0-24.064 10.752-24.064 24.064s10.752 24.064 24.064 24.064h276.992c13.312 0 24.064-10.752 24.064-24.064S510.464 140.8 497.152 140.8zM794.624 467.968H215.04c-10.24 0-18.432 10.752-18.432 24.064s8.192 24.064 18.432 24.064h579.584c10.24 0 18.432-10.752 18.432-24.064s-8.192-24.064-18.432-24.064zM794.624 645.632H215.04c-10.24 0-18.432 10.752-18.432 24.064s8.192 24.064 18.432 24.064h579.584c10.24 0 18.432-10.752 18.432-24.064s-8.192-24.064-18.432-24.064zM954.368-121.344H602.112V-81.92c0.512 16.896 9.728 24.576 31.744 24.576h288.768c22.016 0 31.744-8.192 31.744-25.6v-38.4zM740.864-22.528c-11.264 0-20.48 0.512-29.184 1.024-9.728 1.024-35.328 3.584-43.008 29.184-4.608 15.872-1.024 36.352 8.704 49.664 1.024 1.536 3.072 3.584 6.656 8.192 1.024 1.536 2.048 2.56 3.072 3.584-46.08 58.368-46.08 136.704 0.512 182.272 24.064 23.552 56.32 36.864 90.112 36.864 29.184 0 57.856-9.728 80.896-28.16 50.688-40.448 62.976-111.616 28.16-165.888-5.632-8.704-12.288-16.896-18.432-24.576l8.704-8.704c15.36-16.384 19.456-36.864 10.752-56.32-5.632-12.288-17.92-26.624-45.568-26.624h-1.536c-14.848 0.512-29.696 0-44.032 0-12.288 0-24.064 0-36.352-0.512h-19.456z m-33.28 43.52c2.048-0.512 6.144-1.024 7.68-1.024 7.168-0.512 15.36-1.024 25.088-1.024h17.92c12.288 0 24.576 0 36.864 0.512h45.568c7.168 0 7.68 1.536 8.192 2.56 1.536 3.072 2.048 6.144-3.072 11.264l-9.728 9.728c-15.36 14.848-15.872 34.816-2.048 51.712l1.024 1.024c6.144 7.168 11.776 13.824 16.384 20.992 23.552 36.352 15.36 84.48-18.944 112.128-15.36 12.288-35.328 19.456-55.296 19.456-23.552 0-45.056-8.704-61.44-25.088-36.352-35.84-25.088-93.184 3.584-128.512 9.216-11.264 16.384-28.672-0.512-49.664-1.024-1.024-2.56-3.072-4.608-5.632a37.343 37.343 0 0 1-4.608-5.632c-1.536-3.584-2.56-9.728-2.048-12.8z"  horiz-adv-x="1024" />

    
    <glyph glyph-name="zan2" unicode="&#58890;" d="M162.4230000000003 300.6949999999996l223.03699999999998 3.694822225952521e-13c-86.42499999999961-319.1859999999999 59.54700000000037-335.48699999999997 59.54700000000037-335.48699999999997 61.867 9.947598300641403e-14 49.041999999999916 48.91800000000007 53.715999999999894 57.076000000000086-1.9895196601282805e-13 156.096 165.79599999999945 278.40700000000015 165.79599999999945 278.40700000000015l-1.1368683772161603e-13 442.66099999999994c-6.394884621840902e-14 43.69499999999999-59.54700000000008 59.432999999999915-82.90800000000013 59.432999999999836l-335.111-3.694822225952521e-13c-31.537-5.1514348342607263e-14-57.22099999999986-82.7090000000001-57.22099999999986-82.7090000000001-82.90299999999955-281.91100000000006-82.90299999999934-365.789-82.90299999999934-365.789-0.0009999999998981934-58.247 56.04600000000006-53.59099999999993 56.04600000000006-53.59099999999993v0 0zM162.4230000000003 300.6949999999996zM756.057 300.841l133.553 2.842170943040401e-14c27.580999999999996 4.973799150320701e-14 28.00599999999996 27.090000000000032 28.00599999999996 27.090000000000032l-27.581000000000785 446.44099999999986c-4.618527782440651e-14 28.415999999999997-28.46400000000006 28.415999999999936-28.46400000000006 28.415999999999936l-115.593-1.9895196601282805e-13c-24.081-4.973799150320701e-14-23.864999999999966-18.798000000000027-23.864999999999966-18.798000000000027l1.1368683772161603e-13-449.29599999999994c4.973799150320701e-14-34.28699999999999 33.94500000000007-33.85399999999993 33.94500000000007-33.85399999999993v0 0zM756.057 300.841z"  horiz-adv-x="1024" />

    
    <glyph glyph-name="shipin" unicode="&#59358;" d="M896 128H128c-38.4 0-64 25.6-64 64V704c0 38.4 25.6 64 64 64h768c38.4 0 64-25.6 64-64v-512c0-38.4-25.6-64-64-64z m0 576H128v-512h768V704zM736 0h-448c-19.2 0-32 12.8-32 32s12.8 32 32 32h448c19.2 0 32-12.8 32-32s-12.8-32-32-32zM428.8 275.20000000000005c-12.8 0-25.6 12.8-25.6 25.6V595.2c0 12.8 12.8 25.6 25.6 25.6h12.8L704 467.2c6.4-6.4 12.8-12.8 12.8-19.2 0-6.4-6.4-12.8-12.8-19.2L441.6 281.6c0-6.4-6.4-6.4-12.8-6.4zM448 563.2v-230.4L652.8 448 448 563.2z"  horiz-adv-x="1024" />

    


  </font>
</defs>
</svg>
